<?xml version="1.0" encoding="utf-8"?>
<!-- Generator: Adobe Illustrator 16.0.0, SVG Export Plug-In . SVG Version: 6.00 Build 0)  -->
<!DOCTYPE svg PUBLIC "-//W3C//DTD SVG 1.1//EN" "http://www.w3.org/Graphics/SVG/1.1/DTD/svg11.dtd">
<svg version="1.1" id="Layer_1" xmlns="http://www.w3.org/2000/svg" xmlns:xlink="http://www.w3.org/1999/xlink" x="0px" y="0px"
	 width="523.043px" height="650.399px" viewBox="742.914 699.2 523.043 650.399"
	 enable-background="new 742.914 699.2 523.043 650.399" xml:space="preserve">
<g>
	<path fill="#E4F5FD" d="M749.999,1198.598l0.673-1.507c-2.333-0.745-4.148-1.972-5.443-3.676
		c-2.513-3.306-2.979-7.228-1.401-11.772c1.582-4.545,4.917-8.754,10.009-12.631c2.797-2.125,5.831-3.615,9.093-4.463
		c3.266-0.846,6.248-0.967,8.95-0.36c2.705,0.604,4.904,2.03,6.606,4.267c2.191,2.882,2.501,6.624,0.93,11.22
		c-1.577,4.597-4.581,8.583-9.016,11.953c-3.597,2.734-7.207,4.577-10.839,5.524l-4.043,8.709L749.999,1198.598z M759.192,1182.595
		c0.488,0.644,1.191,0.937,2.111,0.88c0.914-0.06,1.858-0.453,2.823-1.188c0.979-0.746,1.643-1.569,1.994-2.479
		c0.347-0.904,0.299-1.649-0.148-2.237c-0.51-0.671-1.253-0.986-2.223-0.941c-0.974,0.043-1.957,0.442-2.948,1.198
		c-0.964,0.734-1.597,1.549-1.897,2.447C758.607,1181.18,758.703,1181.948,759.192,1182.595z"/>
	<path fill="#E4F5FD" d="M790.459,1196.822l7.561,8.129l-23.207,21.585l-7.237-7.781l4.075-3.789
		c-2.199,0.558-4.043,0.718-5.529,0.481c-1.492-0.233-2.777-0.93-3.853-2.09c-0.909-0.979-1.459-2.148-1.645-3.511
		c-0.188-1.362-0.002-2.685,0.56-3.962c0.563-1.281,1.326-2.456,2.285-3.525c0.959-1.075,2.983-3.047,6.072-5.922l11.023-10.256
		l7.127,7.669l-11.429,10.63c-1.492,1.39-2.503,2.461-3.036,3.22c-0.533,0.762-0.447,1.51,0.246,2.258
		c0.356,0.387,0.839,0.563,1.441,0.527c0.607-0.033,0.979-0.116,1.12-0.246L790.459,1196.822z"/>
	<path fill="#E4F5FD" d="M804.381,1234.778l-8.423-7.589c-0.806,1.472-1.157,2.865-1.05,4.179c0.104,1.311,0.607,2.375,1.509,3.188
		c1.853,1.67,4.126,2.167,6.818,1.491l-3.728,4.134c-4.997,1.743-9.166,1.114-12.493-1.886c-2.835-2.554-4.05-5.724-3.638-9.51
		c0.402-3.787,2.396-7.664,5.972-11.636c1.979-2.196,4.239-3.877,6.785-5.05c2.546-1.17,4.832-1.619,6.855-1.346
		c2.025,0.272,3.842,1.135,5.448,2.581c0.979,0.884,1.724,2.009,2.235,3.386c0.517,1.37,0.724,2.934,0.63,4.682
		c-0.098,1.748-0.595,3.577-1.488,5.491c-0.896,1.913-1.737,3.379-2.526,4.396C806.502,1232.311,805.536,1233.473,804.381,1234.778z
		 M799.193,1222.614l3.858,3.476c0.997-1.186,1.615-2.277,1.856-3.279c0.238-1.002,0.098-1.737-0.425-2.207
		c-0.55-0.494-1.298-0.581-2.253-0.26c-0.953,0.327-1.888,0.995-2.807,2.016L799.193,1222.614z"/>
	<path fill="#E4F5FD" d="M806.425,1238.689c-0.312,1.623-0.296,3.114,0.042,4.474c0.344,1.358,0.912,2.343,1.705,2.956
		c1.143,0.876,2.186,0.7,3.129-0.527c0.372-0.486,0.578-1.013,0.608-1.572c0.035-0.563-0.121-1.143-0.462-1.736l-1.273-2.408
		c-0.912-1.676-1.238-3.443-0.979-5.307c0.254-1.863,1.083-3.701,2.474-5.516c1.851-2.413,4.043-3.695,6.582-3.854
		c2.537-0.158,5.187,0.826,7.948,2.944c2.687,2.064,4.578,4.656,5.666,7.775l-7.044,4.796c0.021-2.888-0.601-4.816-1.871-5.791
		c-0.444-0.342-0.909-0.487-1.399-0.427c-0.49,0.058-0.904,0.312-1.248,0.759c-0.492,0.638-0.683,1.295-0.583,1.975
		c0.102,0.673,0.527,1.604,1.286,2.781c1.632,2.517,2.235,4.731,1.801,6.637c-0.435,1.906-1.258,3.654-2.48,5.244
		c-1.936,2.523-4.188,3.984-6.755,4.385c-2.569,0.398-5.05-0.318-7.451-2.162c-1.323-1.018-2.634-2.418-3.937-4.204
		c-1.297-1.782-2.352-3.671-3.149-5.66L806.425,1238.689z"/>
	<path fill="#E4F5FD" d="M845.553,1242.596l3.916,2.587l-4.882,7.391l-3.915-2.586l-2.343,3.543
		c-1.19,1.803-1.954,3.147-2.285,4.036c-0.332,0.886-0.088,1.602,0.736,2.144c0.833,0.55,1.969,0.396,3.405-0.469l-6.935,10.494
		c-2.348,0.429-4.653-0.102-6.91-1.596c-1.058-0.695-1.896-1.673-2.519-2.932c-0.628-1.25-0.95-2.701-0.971-4.349
		c-0.017-1.646,0.279-3.191,0.89-4.642c0.61-1.454,2.028-3.866,4.259-7.237l3.385-5.127l-3.695-2.44l22.892-6.429L845.553,1242.596z
		"/>
	<path fill="#E4F5FD" d="M835.539,1273.688l15.868-27.433c0.734,1.782,2.03,3.214,3.885,4.286c1.979,1.143,3.896,1.571,5.748,1.283
		l-15.871,27.435L835.539,1273.688z M862.771,1242.35c0.762,0.439,1.193,1.195,1.293,2.269c0.101,1.073-0.168,2.159-0.803,3.255
		c-0.658,1.14-1.481,1.95-2.466,2.426c-0.989,0.478-1.868,0.486-2.642,0.04c-0.715-0.414-1.112-1.17-1.188-2.271
		c-0.073-1.101,0.213-2.21,0.866-3.334c0.618-1.07,1.414-1.834,2.396-2.305C861.208,1241.961,862.057,1241.936,862.771,1242.35z"/>
	<path fill="#E4F5FD" d="M874.076,1257.742c3.016,1.475,4.815,4.082,5.402,7.813c0.594,3.734-0.192,7.803-2.35,12.207
		c-2.18,4.453-4.892,7.512-8.131,9.174c-3.242,1.66-6.529,1.676-9.859,0.045c-3.046-1.493-4.847-4.103-5.398-7.829
		c-0.555-3.725,0.281-7.859,2.508-12.407c2.049-4.184,4.739-7.119,8.069-8.802C867.648,1256.254,870.904,1256.188,874.076,1257.742z
		 M865.141,1275.384c0.618,0.302,1.275,0.263,1.986-0.128c0.708-0.387,1.286-1.037,1.735-1.951c0.495-1.012,0.702-1.919,0.625-2.72
		c-0.075-0.802-0.433-1.354-1.063-1.665c-0.663-0.326-1.349-0.289-2.052,0.111c-0.706,0.396-1.298,1.089-1.775,2.064
		c-0.441,0.902-0.609,1.768-0.507,2.6C864.188,1274.528,864.54,1275.09,865.141,1275.384z"/>
	<path fill="#E4F5FD" d="M885.787,1264.225l10.4,3.952l-1.396,3.674c2.685-1.971,5.253-2.487,7.699-1.56
		c1.366,0.518,2.446,1.323,3.245,2.416c0.798,1.095,1.229,2.359,1.306,3.797s-0.07,2.902-0.437,4.39
		c-0.373,1.486-1.198,3.931-2.491,7.332l-5.601,14.738l-9.809-3.729l5.213-13.728c1.23-3.239,1.895-5.299,1.984-6.188
		c0.09-0.885-0.308-1.497-1.193-1.833c-0.558-0.214-1.288-0.105-2.182,0.325l-7.595,19.989l-10.403-3.95L885.787,1264.225z"/>
	<path fill="#E4F5FD" d="M913.888,1307.399l0.639-2.285c-0.874,0.573-1.845,0.956-2.919,1.143s-2.025,0.16-2.853-0.071
		c-1.662-0.465-2.815-1.582-3.46-3.359c-0.646-1.774-0.638-3.85,0.025-6.217c0.756-2.713,2.019-4.678,3.792-5.896
		c1.77-1.223,3.784-1.52,6.036-0.895c0.979,0.276,2.024,0.823,3.13,1.643c0.753-2.966-0.166-4.813-2.755-5.531
		c-2.152-0.601-4.439-0.38-6.863,0.657l2.562-9.193c3.47-1.643,7.263-1.888,11.375-0.743c2.1,0.585,3.77,1.454,5.011,2.603
		c1.242,1.149,2.049,2.562,2.433,4.235c0.382,1.677,0.481,3.309,0.307,4.891s-0.698,3.925-1.563,7.025l-4.179,14.98
		L913.888,1307.399z M915.771,1300.642l1.189-4.267c-0.517-0.489-1.044-0.813-1.566-0.957c-0.658-0.186-1.267-0.093-1.813,0.273
		c-0.552,0.369-0.931,0.925-1.137,1.67c-0.244,0.879-0.241,1.662,0.018,2.344c0.256,0.685,0.716,1.117,1.376,1.3
		C914.564,1301.209,915.208,1301.088,915.771,1300.642z"/>
	<path fill="#E4F5FD" d="M936.985,1272.063l10.943,2.006l-1.705,9.313c1.601-0.545,3.033-0.705,4.294-0.475
		c3.026,0.555,5.267,2.49,6.724,5.814c1.456,3.32,1.763,7.283,0.919,11.885c-0.507,2.781-1.438,5.268-2.787,7.463
		c-1.346,2.188-2.848,3.775-4.5,4.751c-1.652,0.975-3.239,1.45-4.753,1.435c-1.515-0.019-4.003-0.345-7.461-0.978l-8.925-1.632
		L936.985,1272.063z M944.076,1295.104l-1.316,7.185l0.206,0.041c1.454,0.264,2.515,0.158,3.186-0.316
		c0.668-0.478,1.14-1.469,1.413-2.974c0.22-1.19,0.179-2.172-0.117-2.943c-0.299-0.769-0.801-1.218-1.51-1.348
		C945.385,1294.646,944.765,1294.765,944.076,1295.104z"/>
	<path fill="#E4F5FD" d="M974.461,1277.83l-4.455,39.986l-11.059-1.229l4.455-39.99L974.461,1277.83z"/>
	<path fill="#E4F5FD" d="M997.956,1305.568l-11.328-0.502c0.314,1.65,0.929,2.947,1.846,3.896c0.919,0.944,1.984,1.444,3.194,1.497
		c2.494,0.11,4.564-0.95,6.213-3.186l-0.247,5.561c-2.752,4.525-6.368,6.689-10.843,6.489c-3.813-0.166-6.766-1.843-8.859-5.022
		c-2.095-3.179-3.023-7.438-2.788-12.779c0.13-2.947,0.807-5.685,2.027-8.209c1.217-2.524,2.697-4.323,4.432-5.397
		c1.738-1.075,3.688-1.567,5.847-1.472c1.317,0.058,2.611,0.451,3.882,1.186c1.271,0.732,2.423,1.805,3.46,3.214
		c1.038,1.411,1.818,3.14,2.343,5.187c0.525,2.046,0.81,3.714,0.849,4.999C998.021,1302.313,998.014,1303.825,997.956,1305.568z
		 M986.216,1299.479l5.187,0.229c0.018-1.545-0.201-2.782-0.653-3.712c-0.452-0.924-1.027-1.403-1.729-1.434
		c-0.738-0.032-1.371,0.379-1.903,1.235c-0.53,0.855-0.826,1.971-0.886,3.34L986.216,1299.479z"/>
	<path fill="#E4F5FD" d="M1014.475,1318.907l-12.1,0.315L1001.32,1279l12.1-0.316L1014.475,1318.907z"/>
	<path fill="#E4F5FD" d="M1017.071,1287.257l11.063-1.146l0.407,3.906c1.512-2.963,3.57-4.582,6.177-4.851
		c1.451-0.151,2.778,0.084,3.983,0.703c1.202,0.617,2.159,1.552,2.872,2.802c0.714,1.253,1.241,2.624,1.58,4.118
		s0.697,4.051,1.068,7.67l1.62,15.685l-10.438,1.079l-1.511-14.608c-0.354-3.445-0.689-5.586-1.007-6.416
		c-0.313-0.836-0.947-1.203-1.889-1.104c-0.595,0.063-1.195,0.483-1.807,1.272l2.197,21.27l-11.065,1.146L1017.071,1287.257z"/>
	<path fill="#E4F5FD" d="M1057.556,1281.73l4.613-0.859l1.627,8.708l-4.613,0.862l0.781,4.173c0.396,2.125,0.786,3.621,1.162,4.489
		c0.377,0.868,1.05,1.211,2.015,1.029c0.984-0.181,1.692-1.084,2.125-2.702l2.311,12.365c-1.386,1.938-3.413,3.156-6.074,3.656
		c-1.243,0.229-2.527,0.115-3.85-0.353c-1.321-0.473-2.563-1.291-3.717-2.459c-1.154-1.167-2.02-2.487-2.593-3.955
		c-0.566-1.466-1.225-4.188-1.969-8.159l-1.13-6.04l-4.353,0.813l11.985-20.536L1057.556,1281.73z"/>
	<path fill="#E4F5FD" d="M1090.128,1292.053l-10.953,2.921c0.793,1.479,1.771,2.534,2.931,3.161
		c1.154,0.628,2.322,0.786,3.496,0.473c2.409-0.644,4.067-2.274,4.967-4.896l1.437,5.374c-1.271,5.144-4.066,8.29-8.396,9.442
		c-3.688,0.982-7.007,0.271-9.959-2.135c-2.951-2.405-5.115-6.189-6.491-11.354c-0.762-2.854-0.938-5.668-0.53-8.439
		c0.408-2.772,1.276-4.936,2.609-6.481s3.046-2.6,5.135-3.156c1.276-0.342,2.627-0.352,4.06-0.03
		c1.432,0.318,2.853,0.994,4.264,2.029c1.417,1.029,2.677,2.445,3.792,4.238c1.117,1.796,1.888,3.3,2.311,4.515
		C1089.217,1288.929,1089.663,1290.376,1090.128,1292.053z M1077.104,1289.768l5.02-1.338c-0.449-1.479-1.029-2.597-1.737-3.343
		c-0.71-0.748-1.402-1.034-2.084-0.851c-0.711,0.189-1.192,0.771-1.443,1.75c-0.246,0.975-0.195,2.124,0.157,3.449
		L1077.104,1289.768z"/>
	<path fill="#E4F5FD" d="M1087.189,1274.309l10.448-3.826l1.353,3.687c0.738-3.243,2.335-5.318,4.796-6.222
		c1.371-0.504,2.712-0.599,4.033-0.297c1.314,0.302,2.476,0.975,3.476,2.014c0.999,1.035,1.843,2.24,2.541,3.602
		c0.698,1.366,1.67,3.758,2.923,7.172l5.424,14.807l-9.854,3.611l-5.052-13.793c-1.191-3.252-2.046-5.242-2.559-5.972
		c-0.507-0.729-1.21-0.934-2.101-0.604c-0.562,0.207-1.04,0.765-1.436,1.676l7.358,20.079l-10.447,3.827L1087.189,1274.309z"/>
	<path fill="#E4F5FD" d="M1125.033,1259.006l4.256-1.968l3.727,8.035l-4.258,1.974l1.782,3.854c0.914,1.959,1.657,3.313,2.235,4.063
		c0.579,0.747,1.314,0.915,2.209,0.5c0.908-0.422,1.37-1.467,1.392-3.144l5.289,11.41c-0.869,2.225-2.532,3.907-4.987,5.043
		c-1.146,0.531-2.418,0.735-3.814,0.607c-1.396-0.129-2.8-0.615-4.209-1.465c-1.413-0.846-2.572-1.911-3.487-3.192
		c-0.911-1.281-2.22-3.759-3.919-7.425l-2.585-5.574l-4.019,1.863l6.553-22.857L1125.033,1259.006z"/>
	<path fill="#E4F5FD" d="M1143.111,1266.77c1.396-0.752,2.992-0.661,4.796,0.266c1.808,0.927,3.271,2.443,4.405,4.55
		c1.13,2.107,1.582,4.156,1.356,6.152c-0.226,1.997-1.041,3.373-2.451,4.129c-1.407,0.756-3.013,0.681-4.808-0.229
		c-1.796-0.914-3.26-2.421-4.391-4.524c-1.123-2.095-1.576-4.148-1.365-6.167C1140.868,1268.925,1141.688,1267.531,1143.111,1266.77
		z"/>
	<path fill="#FEC20F" d="M1183.586,1261.595l-0.136,0.088l-8.145,5.712c-3.271,2.094-5.964,3.254-8.072,3.478
		c-2.109,0.224-4.346-0.178-6.703-1.205c-2.357-1.026-4.475-2.442-6.351-4.246c-1.874-1.809-3.535-3.843-4.987-6.106
		c-3.335-5.213-4.82-10.155-4.464-14.826c0.357-4.68,2.461-8.246,6.313-10.71c1.787-1.147,3.932-1.948,6.423-2.408
		c2.496-0.457,5.013-0.487,7.563-0.096l1.57,13.364c-2.885-0.2-5.186,0.248-6.899,1.347c-1.17,0.748-1.843,1.778-2.023,3.078
		c-0.176,1.307,0.174,2.646,1.056,4.021c1.857,2.904,3.903,3.638,6.138,2.206l0.246-0.156l-3.396-5.309l10.17-6.509
		L1183.586,1261.595z"/>
	<path fill="#FEC20F" d="M1196.234,1251.765l-1.465-1.868c-0.051,1.045-0.32,2.055-0.809,3.027
		c-0.492,0.975-1.074,1.729-1.753,2.255c-1.356,1.063-2.943,1.326-4.753,0.789c-1.813-0.535-3.479-1.768-4.995-3.707
		c-1.732-2.214-2.563-4.401-2.493-6.551c0.067-2.152,1.021-3.95,2.865-5.387c0.803-0.628,1.859-1.146,3.174-1.548
		c-1.938-2.367-3.968-2.723-6.087-1.063c-1.758,1.376-2.938,3.347-3.538,5.913l-5.882-7.52c0.735-3.765,2.785-6.963,6.151-9.598
		c1.716-1.341,3.403-2.172,5.064-2.488c1.663-0.315,3.278-0.131,4.854,0.559c1.576,0.688,2.947,1.571,4.117,2.653
		s2.747,2.892,4.729,5.425l9.585,12.253L1196.234,1251.765z M1191.916,1246.239l-2.729-3.49c-0.707,0.128-1.271,0.361-1.703,0.693
		c-0.538,0.424-0.824,0.967-0.854,1.624c-0.029,0.66,0.191,1.296,0.668,1.903c0.563,0.721,1.196,1.183,1.899,1.378
		c0.703,0.201,1.319,0.089,1.863-0.336C1191.652,1247.551,1191.938,1246.958,1191.916,1246.239z"/>
	<path fill="#FEC20F" d="M1187.317,1218.771l7.995-7.738l2.731,2.822c-0.628-3.279-0.01-5.826,1.858-7.635
		c2.25-2.175,5.188-2.477,8.815-0.9c-0.836-4.277-0.304-7.338,1.604-9.185c1.061-1.028,2.251-1.667,3.57-1.919
		c1.326-0.256,2.681-0.085,4.068,0.502c1.391,0.588,2.654,1.348,3.797,2.271c1.141,0.927,2.969,2.691,5.489,5.293l10.966,11.328
		l-7.521,7.279l-10.216-10.552c-2.41-2.485-3.992-3.963-4.76-4.422c-0.763-0.46-1.483-0.359-2.167,0.301
		c-0.479,0.465-0.689,1.171-0.632,2.117l14.876,15.363l-7.539,7.298l-10.221-10.553c-2.39-2.477-3.979-3.942-4.756-4.404
		c-0.773-0.457-1.496-0.364-2.167,0.284c-0.404,0.392-0.615,1.097-0.63,2.116l14.873,15.362l-7.993,7.74L1187.317,1218.771z"/>
	<path fill="#FEC20F" d="M1244.785,1182.986l-7.139,8.809c1.514,0.729,2.923,1.007,4.229,0.831c1.307-0.173,2.341-0.733,3.104-1.675
		c1.571-1.939,1.949-4.234,1.135-6.887l4.32,3.504c2.002,4.898,1.593,9.094-1.229,12.576c-2.4,2.963-5.504,4.34-9.307,4.134
		c-3.802-0.209-7.779-1.995-11.931-5.359c-2.295-1.858-4.096-4.028-5.396-6.512c-1.308-2.483-1.873-4.738-1.703-6.777
		c0.166-2.034,0.93-3.893,2.293-5.571c0.832-1.022,1.916-1.828,3.263-2.413c1.344-0.587,2.893-0.874,4.641-0.869
		c1.754,0,3.605,0.401,5.564,1.194c1.956,0.797,3.465,1.563,4.52,2.291C1242.212,1180.997,1243.422,1181.903,1244.785,1182.986z
		 M1232.91,1188.804l3.27-4.035c-1.234-0.934-2.359-1.493-3.375-1.68c-1.01-0.19-1.737-0.011-2.182,0.537
		c-0.465,0.572-0.511,1.326-0.139,2.265c0.374,0.936,1.093,1.834,2.16,2.697L1232.91,1188.804z"/>
	<path fill="#FEC20F" d="M1248.585,1180.745c1.635,0.229,3.121,0.136,4.46-0.278c1.341-0.411,2.295-1.029,2.862-1.857
		c0.813-1.186,0.585-2.221-0.688-3.094c-0.508-0.352-1.045-0.526-1.607-0.526c-0.563-0.006-1.133,0.18-1.707,0.552l-2.338,1.401
		c-1.625,1-3.373,1.416-5.245,1.26c-1.877-0.16-3.755-0.886-5.642-2.179c-2.506-1.724-3.901-3.848-4.195-6.371
		c-0.293-2.524,0.55-5.221,2.52-8.088c1.92-2.799,4.409-4.822,7.462-6.072l5.166,6.78c-2.883,0.13-4.778,0.854-5.683,2.174
		c-0.318,0.463-0.438,0.938-0.354,1.419c0.083,0.484,0.356,0.887,0.82,1.206c0.669,0.457,1.334,0.616,2.004,0.479
		c0.671-0.136,1.575-0.612,2.713-1.432c2.428-1.765,4.605-2.48,6.531-2.149s3.714,1.064,5.366,2.2
		c2.624,1.8,4.201,3.973,4.735,6.514c0.537,2.546-0.053,5.063-1.766,7.555c-0.946,1.376-2.275,2.762-3.988,4.152
		c-1.715,1.395-3.543,2.541-5.485,3.445L1248.585,1180.745z"/>
</g>
<g>
	<g>
		<path fill="none" d="M934.133,882.441c2.951-4.383,6.243-8.648,9.839-12.683C939.818,873.574,936.346,877.721,934.133,882.441z"/>
	</g>
	<g>
		<path fill="none" d="M1105.017,724.504c0-0.002,0-0.007-0.002-0.013C1104.729,723.452,1104.52,722.701,1105.017,724.504z"/>
	</g>
	<g>
		<path fill="none" d="M983.104,803.29c0.418,0.686,0.812,1.364,1.185,2.034c0.489-0.376,0.998-0.726,1.521-1.049
			C984.913,803.932,984.013,803.601,983.104,803.29z"/>
	</g>
	<g>
		<path fill="none" d="M978.99,843.714c0.247-0.354,0.479-0.718,0.72-1.078c-0.957,0.939-1.959,1.861-3.007,2.766
			c0.472-0.203,0.945-0.404,1.422-0.599C978.479,844.357,978.793,843.958,978.99,843.714z"/>
	</g>
	<g>
		<path fill="none" d="M1187.458,1063.075c1.585-4.725,2.803-9.693,3.265-14.668c0.567-6.355,0.563-12.709-0.015-19.063
			C1191.632,1040.693,1190.697,1052.142,1187.458,1063.075z"/>
	</g>
	<g>
		<g>
			<path fill="#FEC20F" d="M959.594,1195.9c-4.197-15.114-8.604-30.166-12.688-45.313c-0.664-2.463-5.881-18.863-6.102-26.626
				c-0.762-0.125-1.523-0.229-2.285-0.363c-10.994-1.896-21.123-4.684-30.547-8.541c9.269,18.359,18.118,37,25.229,56.296
				C938.154,1184.788,944.865,1193.176,959.594,1195.9z"/>
		</g>
		<g>
			<path fill="#FEC20F" d="M922.007,1186.835c-8.157-23.763-19.68-46.205-28.243-69.822c-0.673-1.86-3.175-7.009-4.502-11.653
				c-9.092-5.829-17.508-13.036-25.438-21.884c-2.177-2.431-6.322-2.709-11.282-2.366c4.898,7.909,10.297,19.332,10.882,20.679
				C877.617,1134.38,883.584,1175.425,922.007,1186.835z"/>
		</g>
		<g>
			<path fill="#FEC20F" d="M1108.844,1179.834c21.832-17.008,24.625-59.569,34.646-89.601c-4.552,1.587-9.302,2.897-14.252,3.901
				c-4.088,0.826-8.233,1.35-12.391,1.793c1.096,10.271-0.042,26.471-0.214,28.193
				C1114.785,1142.765,1112.113,1161.385,1108.844,1179.834z"/>
		</g>
		<g>
			<path fill="#FEC20F" d="M999.386,1201.156c-4.73-22.341-9.185-44.216-11.825-66.928c1.68-5.328,4.413-5.996,8.199-2.005
				c2.443,8.398,3.047,17.226,4.896,25.75c1.737,8.01,6.143,13.923,8.822,21.396c3.114,8.694,3.844,26.104,17.872,22.008
				c15.405-4.501,7.434-48.886,8.374-61.592c0.135-1.777,6.09-22.733,8.053-15.78c2.056,7.288,2.137,15.462,2.719,22.957
				c1.331,17.18,4.092,35.896,2.459,53.116c21.119-2.719,18.68-43.72,20.943-58.521c0.967-6.306,1.75-23.807,5.49-35.576
				c-13.184,5.61-26.854,10.118-40.766,13.514c-27.741,6.774-56.725,9.072-85.113,5.694c7.269,9.65,9.465,28.639,13.52,37.288
				C972.096,1181.823,974.634,1199.403,999.386,1201.156z"/>
		</g>
		<g>
			<path fill="#FEC20F" d="M1080.987,1192.698c14.521-4.959,16.079-37.566,17.922-49.532c1.858-12.043,1.62-32.526,7.255-46.13
				c-6.351,0.721-12.602,1.705-18.569,3.754C1091.095,1120.923,1081.936,1184.54,1080.987,1192.698z"/>
		</g>
		<g>
			<path fill="#D7A728" d="M1108.844,1179.834c3.271-18.449,5.941-37.069,7.789-55.712c0.172-1.724,1.309-17.923,0.214-28.193
				c-3.567,0.382-7.139,0.7-10.683,1.107c-5.635,13.604-5.396,34.087-7.255,46.13c-1.843,11.966-3.399,44.573-17.922,49.532
				c0.946-8.158,10.106-71.775,6.606-91.908c-1.623,0.558-3.225,1.19-4.802,1.922c-2.446,1.138-4.92,2.215-7.403,3.271
				c-3.74,11.77-4.523,29.271-5.49,35.575c-2.265,14.801,0.176,55.802-20.943,58.521c1.633-17.221-1.128-35.937-2.459-53.116
				c-0.582-7.495-0.663-15.669-2.719-22.957c-1.962-6.953-7.918,14.003-8.053,15.78c-0.94,12.706,7.031,57.091-8.373,61.592
				c-14.029,4.097-14.759-13.313-17.873-22.008c-2.68-7.474-7.084-13.387-8.822-21.396c-1.85-8.525-2.454-17.353-4.896-25.75
				c-3.785-3.992-6.521-3.324-8.199,2.005c2.641,22.711,7.095,44.586,11.825,66.927c-24.752-1.753-27.29-19.333-36.355-38.677
				c-4.054-8.65-6.251-27.639-13.52-37.288c-2.911-0.348-5.812-0.762-8.706-1.229c0.221,7.763,5.438,24.163,6.102,26.626
				c4.084,15.146,8.49,30.197,12.688,45.313c-14.729-2.726-21.439-11.112-26.393-24.546c-7.11-19.296-15.961-37.938-25.229-56.296
				c-6.561-2.688-12.779-5.898-18.711-9.7c1.327,4.646,3.829,9.793,4.502,11.653c8.563,23.617,20.086,46.061,28.243,69.822
				c-38.423-11.41-44.39-52.455-58.584-85.048c-0.585-1.346-5.983-12.769-10.882-20.679c-2.778,0.191-5.814,0.574-8.905,0.886
				c0.614,11.285,8.239,27.191,10.771,34.521c5.431,15.729,11.36,31.337,17.905,46.645c8.057,18.839,17.867,29.36,37.283,36.13
				c59.031,20.587,129.066,31.683,188.254,5.725c33.203-1.756,42.922-58.813,49.58-82.901c3.285-11.885,4.776-23.261,5.246-35.588
				c-2.961,1.364-6.021,2.605-9.188,3.709C1133.469,1120.265,1130.676,1162.826,1108.844,1179.834z"/>
		</g>
	</g>
	<g>
		<path fill="#9EDCF0" d="M1102.605,934.644l-2.771,8.81l-4.787,15.07c1.874-0.362,3.772-0.599,5.696-0.668
			c5.248-0.194,13.996,0.662,16.797,5.88c0.896,1.672,0.053,3.449-1.658,4.074c-2.567,0.939-5.313,0.021-7.978-0.103
			c-2.768-0.128-5.574-0.372-8.342-0.128c-0.187,0.018-0.366,0.048-0.552,0.067c-5.383,0.572-10.343,2.488-15.099,5.027
			c-1.926,1.03-3.782,2.141-5.565,3.342c-0.355,0.277-0.723,0.53-1.1,0.771c-2.587,1.828-5.027,3.852-7.313,6.117
			c-0.857,0.851-1.728,1.691-2.602,2.53c1.18,0.748,2.343,1.518,3.48,2.315c5.657,3.978,11.44,8.438,15.784,13.877
			c3.888,4.866,8.853,12.379,6.265,18.81c-0.046,0.119-0.092,0.239-0.146,0.357c-0.721,1.607-2.742,2.052-4.286,1.745
			c-3.19-0.633-4.995-3.338-7.281-5.352c-2.408-2.119-4.337-4.646-6.51-6.985c-2.228-2.396-4.586-4.645-7.089-6.724
			c-1.938-1.608-3.959-3.122-6.078-4.507c-0.396-0.259-0.806-0.5-1.205-0.754c-9.381-5.949-19.741-10.574-30.375-13.755
			c-10.995-3.295-22.563-5.372-34.059-5.608c-5.489-0.109-10.875,0.35-16.188,1.812c-5.01,1.381-10.754,2.476-15.342,4.957
			c-2.078,1.125-4.188-1.547-2.521-3.268c2.223-2.293,3.983-4.636,6.698-6.403c2.722-1.772,5.558-3.389,8.63-4.479
			c5.885-2.087,12.043-3.285,18.23-4.058c1.063-3.398,2.362-7.58,3.644-11.805c0.62-2.012,1.221-4.025,1.818-6.034l0.167-0.561
			c0.661-2.197,1.315-4.398,1.954-6.602c0.655-2.205,1.293-4.41,1.923-6.612c0.527-1.795,1.032-3.593,1.537-5.394l0.347-1.233
			c1.257-4.422,2.502-8.836,3.726-13.269l3.684-13.271c1.315-4.738,2.503-9.004,3.731-13.273l1.9-6.622
			c0.639-2.205,1.285-4.41,1.938-6.607c0.576-1.958,1.163-3.913,1.754-5.874l0.22-0.733c0.661-2.194,1.332-4.395,2.011-6.584
			c1.18-3.842,2.487-8.021,4.12-13.147c0.716-2.235,1.459-4.527,2.22-6.857c-10.905-17.292-29.83-34.434-48.931-41.726
			c-0.523,0.324,0.489,1.7,0,2.077c9.375,16.825,6.078,30.041-3.394,39.347c-0.241,0.359-0.473,0.725-0.72,1.078
			c-0.197,0.243-0.512,0.643-0.865,1.089c-0.477,0.194-0.95,0.396-1.422,0.599c-9.737,8.401-23.072,13.479-32.73,22.347
			c-3.596,4.033-9.839,10.286-9.839,14.692c-0.643,1.371-1.183,2.79-1.598,4.268c13.354,1.579,46.62,22.661,36.664,41.78
			c-0.604,1.159-11.476-13.679-13.338-15.622c-6.248-6.521-14.057-9.184-22.832-10.349c-15.291-2.03-31.331,1.875-44.617,9.527
			c-15.591,8.979-21.478,21.519-25.967,38.167c-3.172,11.765-4.913,13.223,7.586,17.06c5.651-0.745,9.355,1.013,11.112,5.273
			c-0.725,2.406-31.479,2.325-36.241,3.604c-9.563,2.566-18.314,9.184-24.411,16.83c-6.77,8.495-11.014,18.706-12.68,29.389
			c-4.133,26.442,13.87,53.747,42.056,55.551c-3.146-2.675-3.406-4.843-0.78-6.503c14.258,5.287,25.26,24.545,37.952,33.374
			c13.187,9.176,28.745,14.983,44.172,19.125c37.126,9.959,77.702,8.271,114.851-0.692c33.365-8.052,67.925-22.797,92.277-47.723
			c3.566-3.649,27.939-34.089,25.654-38.049c5.79,10.063,0.369,33.715-2.273,43.563c26.934-33.135,18.538-91.123-7.574-122.229
			c-0.942-1.12-32.229-30.626-46.155-40.557c-1.007,3.617-2.13,7.195-3.345,10.71
			C1103.987,930.851,1103.304,932.752,1102.605,934.644z M956.244,887.315c-25.006,0,21.864-32.21,23.701-33.098
			c-1.522,0.733-7.502,3.614,0.001-0.002c0,0,0.001,0,0.002,0c0,0,0,0-0.001,0c0.386-0.186,0.488-0.232,0.001,0
			C989.96,849.396,968.281,887.315,956.244,887.315z M824.539,1032.235c-8.3,13.771-7.884-16.671-7.714-17.128
			c5.012-13.471,26.394-33.62,42.524-28.799c-0.015-0.005-0.027-0.011-0.044-0.016c-0.079-0.021-0.166-0.05-0.257-0.075
			c-0.2-0.061-0.383-0.114-0.552-0.166l0,0c-0.19-0.058-0.383-0.112-0.565-0.168c-0.078-0.021-0.153-0.048-0.227-0.067
			c-0.046-0.013-0.095-0.03-0.136-0.04c-0.095-0.03-0.183-0.056-0.261-0.078c-0.027-0.008-0.049-0.017-0.072-0.023
			c-0.063-0.018-0.114-0.033-0.158-0.047c-0.161-0.048-0.188-0.056,0,0c0.044,0.015,0.097,0.03,0.158,0.047
			c0.023,0.007,0.045,0.016,0.072,0.023c0.078,0.021,0.166,0.047,0.261,0.078c0.041,0.01,0.089,0.027,0.136,0.04
			c0.073,0.02,0.148,0.045,0.227,0.067c0.162,0.048,0.355,0.105,0.565,0.168l0,0c0.168,0.05,0.352,0.105,0.552,0.166
			c0.091,0.025,0.178,0.054,0.257,0.075c0.104,0.033,0.192,0.058,0.267,0.081c0.077,0.023,0.131,0.038,0.165,0.05
			c0.009,0.002,0.021,0.005,0.027,0.007c0.016,0.002,0.021,0.005,0.021,0.005s-0.006-0.002-0.021-0.005
			c-0.006-0.002-0.019-0.005-0.027-0.007c-0.033-0.013-0.089-0.026-0.165-0.05c-0.061-0.018-0.13-0.041-0.223-0.065
			C863.896,987.667,831.1,1025.842,824.539,1032.235z M892.039,942.872c-2.307,2.7-6.334,14.55-10.569,14.55
			c-17.685,0,11.071-65.408,42.089-43.084c-0.607-0.438-1.643-1.183-1.78-1.283c0.089,0.065,0.581,0.419,1.786,1.286
			c0.684,0.492,0.476,0.341,0.002,0.002C932.064,920.473,896.493,937.659,892.039,942.872z M1015.127,1002.311
			c-10.808-1.614-18.407-7.028-31.695-6.015c-2.379,0.185-6.104,2.125-6.955-2.862c-2.457-14.406,76.29-5.045,83.072,24.021
			c-0.015-0.071-0.015-0.081,0.004,0.002c0.86,3.694,0.112,0.484,0,0C1063.267,1033.424,1019.125,1002.905,1015.127,1002.311z"/>
	</g>
	<g>
		<path fill="#E4F5FD" d="M923.566,914.343c0.473,0.338,0.681,0.49-0.002-0.002c-1.207-0.867-1.698-1.221-1.787-1.286
			c0.138,0.101,1.173,0.844,1.78,1.283c-31.018-22.324-59.773,43.084-42.089,43.084c4.235,0,8.264-11.85,10.569-14.55
			C896.493,937.659,932.064,920.473,923.566,914.343z"/>
	</g>
	<g>
		<path fill="none" d="M859.572,986.375c0.077,0.023,0.131,0.038,0.165,0.05"/>
	</g>
	<g>
		<path fill="none" d="M857.311,985.699c0.077,0.021,0.166,0.047,0.26,0.078"/>
	</g>
	<g>
		<path fill="none" d="M859.764,986.432c0.016,0.002,0.021,0.006,0.021,0.006"/>
	</g>
	<g>
		<path fill="none" d="M857.079,985.629c0.044,0.016,0.097,0.03,0.158,0.047"/>
	</g>
	<g>
		<path fill="none" d="M857.237,985.676c0.023,0.007,0.045,0.016,0.073,0.023"/>
	</g>
	<g>
		<path fill="#E4F5FD" d="M859.306,986.294c0.017,0.005,0.029,0.01,0.044,0.016c0.093,0.024,0.162,0.048,0.223,0.065
			C859.498,986.352,859.409,986.327,859.306,986.294z"/>
	</g>
	<g>
		<path fill="#E4F5FD" d="M857.079,985.629C856.891,985.573,856.918,985.581,857.079,985.629L857.079,985.629z"/>
	</g>
	<g>
		<path fill="none" d="M859.049,986.219c0.091,0.025,0.178,0.053,0.257,0.075"/>
	</g>
	<g>
		<path fill="none" d="M858.497,986.053c0.168,0.05,0.352,0.105,0.552,0.166"/>
	</g>
	<g>
		<path fill="#E4F5FD" d="M816.825,1015.107c-0.169,0.457-0.585,30.898,7.714,17.128c6.561-6.395,39.357-44.568,34.811-45.927
			C843.218,981.488,821.837,1001.638,816.825,1015.107z"/>
	</g>
	<g>
		<path fill="none" d="M859.764,986.432c-0.006-0.002-0.019-0.005-0.027-0.007"/>
	</g>
	<g>
		<path fill="none" d="M857.569,985.777c0.041,0.01,0.089,0.027,0.136,0.04"/>
	</g>
	<g>
		<path fill="none" d="M857.705,985.817c0.073,0.02,0.148,0.045,0.227,0.067"/>
	</g>
	<g>
		<path fill="#E4F5FD" d="M858.497,986.053c-0.209-0.063-0.403-0.121-0.565-0.168C858.114,985.94,858.307,985.995,858.497,986.053z"
			/>
	</g>
	<g>
		<line fill="none" x1="858.497" y1="986.053" x2="858.497" y2="986.053"/>
	</g>
	<g>
		<path fill="#E4F5FD" d="M979.948,854.216C979.947,854.216,979.947,854.216,979.948,854.216c-7.506,3.616-1.525,0.736-0.003,0.002
			c-1.837,0.888-48.707,33.098-23.701,33.098C968.281,887.315,989.96,849.396,979.948,854.216z"/>
	</g>
	<g>
		<path fill="#E4F5FD" d="M979.947,854.216C979.948,854.216,979.948,854.216,979.947,854.216
			C980.436,853.982,980.333,854.03,979.947,854.216z"/>
	</g>
	<g>
		<path fill="#E4F5FD" d="M1059.553,1017.455c-0.019-0.083-0.019-0.073-0.004-0.002c-6.782-29.064-85.529-38.426-83.072-24.021
			c0.853,4.987,4.576,3.046,6.955,2.862c13.289-1.014,20.889,4.4,31.695,6.015
			C1019.125,1002.905,1063.267,1033.424,1059.553,1017.455C1059.665,1017.939,1060.413,1021.149,1059.553,1017.455z"/>
	</g>
	<g>
		<path fill="#00AEEF" d="M1203.545,999.174C1203.457,998.878,1203.465,998.902,1203.545,999.174L1203.545,999.174z"/>
	</g>
	<g>
		<path fill="#00AEEF" d="M1205.83,1006.943c0.002,0.002,0.002,0.005,0.005,0.005c0.15,0.523,0.294,1.004,0.43,1.467
			C1206.121,1007.931,1205.979,1007.438,1205.83,1006.943z"/>
	</g>
	<g>
		<path fill="#00AEEF" d="M1206.265,1008.415C1207.949,1014.143,1209.255,1018.57,1206.265,1008.415L1206.265,1008.415z"/>
	</g>
	<g>
		<path fill="#00AEEF" d="M1205.634,1006.271c0.063,0.216,0.126,0.43,0.191,0.654c0.002,0.005,0.005,0.008,0.005,0.014
			C1205.765,1006.715,1205.699,1006.491,1205.634,1006.271z"/>
	</g>
	<g>
		<path fill="#55C7DD" d="M1205.835,1006.948c-0.003-0.003-0.005-0.005-0.005-0.007c0-0.007-0.003-0.012-0.005-0.017
			c-8.006-27.184-26.482-52.633-48.958-68.142c-6.555-4.524-33.549-22.396-47.699-25.023c-0.369,1.494-0.767,2.983-1.178,4.467
			c13.927,9.93,43.436,40.159,44.377,41.278c26.113,31.107,36.286,88.372,9.354,121.507c2.644-9.849,8.063-33.501,2.273-43.563
			c2.285,3.96-22.088,34.398-25.654,38.049c-24.354,24.926-58.912,39.671-92.277,47.723c-37.147,8.965-77.724,10.651-114.851,0.692
			c-15.427-4.142-30.985-9.949-44.172-19.125c-12.692-8.829-23.693-28.087-37.952-33.374c-2.626,1.66-2.367,3.828,0.78,6.503
			c-28.186-1.804-46.188-29.107-42.057-55.551c1.667-10.683,5.911-20.894,12.681-29.389c6.097-7.646,14.85-14.263,24.41-16.829
			c4.763-1.278,35.519-1.198,36.242-3.604c-1.757-4.261-5.46-6.019-11.112-5.273c-12.5-3.837-10.759-5.294-7.586-17.06
			c4.489-16.649,10.376-29.188,25.967-38.167c13.286-7.651,29.326-11.558,44.617-9.527c8.774,1.165,16.583,3.827,22.832,10.349
			c1.862,1.943,12.733,16.781,13.338,15.622c9.956-19.12-23.31-40.201-36.664-41.78c0.416-1.477,0.955-2.896,1.598-4.267
			c2.213-4.722,5.686-8.867,9.839-12.683c9.658-8.867,22.994-15.956,32.73-24.357c1.048-0.903,2.051-1.826,3.007-2.766
			c9.472-9.306,13.953-20.487,4.578-37.313c-0.373-0.67-0.767-1.349-1.185-2.034c0.909,0.312,1.81,0.643,2.706,0.984
			c19.101,7.292,35.319,21.372,46.226,38.665c0.671-2.058,1.358-4.142,2.058-6.246c1.11-3.322,2.293-6.806,3.586-10.58
			c-15.646-13.206-59.687-46.847-63.071-28.441c-0.947,5.155,1.803,10.773,3.789,15.963c0.664,1.735,1.242,3.423,1.569,5.03
			c0.64,3.146,0.57,6.029-0.03,8.691c-2.244,9.953-11.976,16.81-20.49,22.538c-10.648,7.158-22.613,14.007-29.608,25.187
			c-2.26,3.468-3.812,7.207-4.654,11.223c-9.229,0.042-18.477,1.865-27.19,4.831c-31.374,10.668-49.559,38.664-43.31,72.2
			c-53.017-8.672-82.452,67.058-53.488,105.208c6.218,8.188,14.346,13.311,23.861,16.855c4.417,1.646,9.778,1.897,15.003,1.924
			c3.108,0.015,6.167-0.046,8.95,0.055c4.968,0.184,9.061,0.895,10.97,3.54c6.957,9.633,14.568,17.689,22.996,24.438
			c5.498,4.404,11.346,8.252,17.587,11.616c8.966,4.827,18.743,8.664,29.479,11.707c0.742,0.212,1.49,0.396,2.234,0.602
			c2.83,0.771,5.671,1.485,8.528,2.137c27.875,6.349,56.939,7.111,85.239,3.292c14.191-1.913,28.261-4.957,41.961-9.148
			c2.582-0.787,5.153-1.602,7.707-2.476c1.645-0.563,3.305-1.02,4.979-1.403c6.147-1.411,12.472-1.731,18.859-1.779
			c3.565-0.03,7.151,0.023,10.74,0.021c4.178-0.006,8.359-0.088,12.51-0.479c5.025-0.478,9.893-1.28,14.583-2.38
			c3.265-0.765,6.438-1.679,9.526-2.724C1194.826,1108.101,1221.12,1058.885,1205.835,1006.948z"/>
	</g>
	<g>
		<path fill="#00AEEF" d="M1205.634,1006.271c-0.352-1.193-0.655-2.224-0.914-3.098
			C1205.007,1004.141,1205.317,1005.2,1205.634,1006.271z"/>
	</g>
	<g>
		<path fill="none" d="M1204.052,1000.902c0.013,0.04,0.025,0.08,0.035,0.121"/>
	</g>
	<g>
		<path fill="#00AEEF" d="M1203.735,999.822c-0.083-0.279-0.148-0.502-0.19-0.648
			C1203.585,999.313,1203.65,999.528,1203.735,999.822z"/>
	</g>
	<g>
		<path fill="#00AEEF" d="M1204.052,1000.902c-0.128-0.439-0.232-0.797-0.315-1.08
			C1203.82,1000.121,1203.929,1000.482,1204.052,1000.902z"/>
	</g>
	<g>
		<path fill="none" d="M1204.087,1001.021c0.056,0.182,0.11,0.377,0.173,0.586"/>
	</g>
	<g>
		<path fill="#00AEEF" d="M1204.72,1003.174c-0.163-0.56-0.315-1.087-0.46-1.565
			C1204.393,1002.063,1204.549,1002.584,1204.72,1003.174z"/>
	</g>
	<g>
		<path fill="#ED1C24" d="M1118.155,814.64c1.902,1.438,3.641,2.943,5.16,4.479c0.86,0.862,1.624,1.761,2.258,2.526
			c0.743,0.962,1.392,1.825,1.924,2.767c0.213,0.334,0.396,0.696,0.572,1.045l0.366,0.766c0.166,0.376,0.339,0.769,0.468,1.181
			c0.389,1.154,0.585,2.172,0.592,3.102c0.01,0.125,0.008,0.276-0.01,0.427l-0.016,0.332c0,0.196-0.029,0.375-0.061,0.547
			l-0.076,0.49l-0.368,1.229l-1.229,3.527c-0.367,3.311-1.473,6.479-3.287,9.428l-1.763,5.055c-0.722,2.077-1.454,4.196-2.187,6.323
			c-0.923,3.444-1.862,6.88-2.722,10.298c-1.096,4.354-2.261,8.688-3.46,13.015c-0.765,5.746-1.582,11.486-2.285,17.237
			c-0.229,1.886-0.522,3.771-0.845,5.653l0.099-0.326c0.896-2.938,1.771-5.884,2.646-8.83c0.436-1.456,0.866-2.915,1.302-4.369
			c1.159-3.875,2.394-8.076,3.88-13.214c1.128-3.897,2.319-8.108,3.752-13.251c0.957-3.418,1.883-6.838,2.813-10.264l0.823-3.03
			l4.761-17.964l0.051-0.485c0.035-0.324,0.073-0.688,0.062-0.986l-0.019-0.497c0-0.155-0.006-0.307-0.026-0.444
			c-0.101-1.144-0.413-2.309-0.955-3.588c-0.181-0.468-0.401-0.885-0.64-1.326l-0.374-0.651c-0.241-0.404-0.468-0.783-0.73-1.137
			c-0.676-1.016-1.462-1.93-2.208-2.78l-0.407-0.425c-0.266-0.281-0.526-0.563-0.803-0.831l-0.377-0.359
			c-0.292-0.28-0.583-0.563-0.895-0.834c-1.614-1.458-3.41-2.85-5.484-4.261c-1.783-1.221-3.712-2.396-5.896-3.596l-0.444-0.243
			c-0.354-0.194-0.706-0.387-1.064-0.565l-1.941-0.986c-0.903-0.436-1.809-0.872-2.711-1.284c-0.236-0.105-0.479-0.206-0.718-0.313
			c0.234,0.111,0.465,0.22,0.701,0.332C1110.686,809.618,1114.645,812.003,1118.155,814.64z"/>
	</g>
	<g>
		<path fill="#ED1C24" d="M1098.674,944.518c-1.994,4.604-4.204,9.113-6.75,13.479c-0.296,0.507-0.607,1.007-0.91,1.509
			c1.04-0.306,2.096-0.577,3.154-0.806L1098.674,944.518z"/>
	</g>
	<g>
		<path fill="#F1697B" d="M1113.823,814.233c0.417,0.109,0.832,0.253,1.243,0.411c0.336-0.107,0.718-0.053,1.042,0.273
			c0.109,0.111,0.222,0.219,0.332,0.329c1.696,0.867,3.304,2.092,4.745,3.538c0.382,0.266,0.761,0.54,1.115,0.847
			c0.229,0.196,0.309,0.452,0.301,0.708c0.102,0.12,0.193,0.249,0.291,0.372c0.148-0.065,0.324-0.078,0.484-0.01
			c0.231,0.1,0.45,0.221,0.668,0.344c-0.396-0.452-0.823-0.921-1.283-1.379c-1.494-1.509-3.201-2.991-5.074-4.404
			c-3.472-2.605-7.388-4.965-11.642-7.009c-1.417-0.681-2.772-1.293-4.114-1.857l-0.656,4.939c3.064,1.311,5.945,2.745,8.572,4.274
			C1110.652,814.457,1112.064,813.766,1113.823,814.233z"/>
	</g>
	<g>
		<path fill="#F1697B" d="M1034.654,971.295c6.057,1.763,12.115,3.88,17.979,6.431c2.373-8.086,4.967-16.104,7.659-24.091
			c3.894-18.367,8.317-36.609,13.294-54.728c3.723-13.545,7.589-27.048,11.885-40.422c1.778-5.532,3.531-11.074,5.465-16.541
			c0.035-0.313,0.082-0.621,0.113-0.933c0.051-0.459,0.091-0.919,0.13-1.381c-2.754-0.582-5.56-1.301-8.382-2.172
			c-9.798-3.019-18.55-7.368-24.645-12.245c-6.192-4.952-8.922-9.889-7.685-13.896c1.433-4.644,7.966-7.306,17.925-7.306
			c4.981,0,10.467,0.673,16.137,1.943l1.673-4.598c-1.908-0.425-3.931-0.807-6.177-1.152c-4.706-0.713-9.276-0.975-13.566-0.776
			c-2.351,0.113-4.595,0.374-6.682,0.781c-1.016,0.19-2.069,0.454-3.229,0.801c-0.943,0.305-2.041,0.673-3.033,1.153
			c-0.344,0.148-0.652,0.316-0.959,0.484c-0.16,0.088-0.318,0.173-0.479,0.259c-0.093,0.063-0.224,0.146-0.354,0.229
			c-0.327,0.204-0.634,0.397-0.911,0.623c-0.925,0.693-1.604,1.369-2.098,2.077c-0.093,0.113-0.144,0.193-0.193,0.284l-0.203,0.324
			c-0.101,0.149-0.165,0.301-0.23,0.448l-0.542,1.518l-4.485,16.629c-1.125,4.128-2.33,8.473-3.685,13.284
			c-1.341,4.723-2.599,9.055-3.839,13.235c-1.422,4.779-2.729,9.094-3.99,13.191l-0.259,0.836c-0.593,1.911-1.186,3.827-1.79,5.738
			c-0.687,2.189-1.379,4.38-2.087,6.568c-0.693,2.188-1.404,4.37-2.12,6.552l-2.149,6.542c-1.44,4.363-2.915,8.719-4.39,13.072
			l-4.429,13.045c-1.331,3.904-2.644,7.822-3.951,11.734l-0.441,1.324c-0.732,2.182-1.457,4.354-2.172,6.534
			c-0.716,2.179-1.434,4.366-2.135,6.546c-0.708,2.189-1.408,4.37-2.103,6.563c-0.692,2.181-1.387,4.37-2.063,6.564
			c-0.992,3.169-2.027,6.541-3.307,10.739C1010.403,966.009,1022.893,967.872,1034.654,971.295z"/>
	</g>
	<g>
		<path fill="#F1697B" d="M1122.846,848.689c-0.005,0.01-0.005,0.017-0.01,0.027l0.013-0.033
			C1122.846,848.684,1122.846,848.688,1122.846,848.689z"/>
	</g>
	<g>
		<path fill="#ED1C24" d="M1000.716,956.142c0.677-2.196,1.371-4.387,2.066-6.569c0.69-2.195,1.395-4.376,2.103-6.566
			c0.699-2.179,1.418-4.369,2.135-6.551c0.718-2.183,1.44-4.354,2.175-6.537l0.441-1.323c1.31-3.915,2.618-7.832,3.95-11.738
			l4.432-13.047c1.473-4.352,2.946-8.703,4.386-13.064l2.148-6.542c0.715-2.18,1.423-4.359,2.116-6.546
			c0.708-2.19,1.401-4.377,2.087-6.564c0.605-1.911,1.198-3.824,1.79-5.734l0.257-0.837c1.267-4.093,2.569-8.406,3.988-13.181
			c1.243-4.179,2.498-8.507,3.836-13.229c1.356-4.81,2.563-9.151,3.686-13.274l4.543-16.834c0.02-0.081,0.038-0.153,0.055-0.211
			l0.228-0.688l0.239-0.522c0.081-0.184,0.166-0.369,0.292-0.558l0.188-0.302c0.065-0.117,0.142-0.237,0.244-0.358
			c0.518-0.746,1.255-1.482,2.234-2.215c0.304-0.246,0.646-0.461,0.975-0.67c0.126-0.077,0.254-0.158,0.38-0.241
			c0.189-0.101,0.344-0.184,0.497-0.27c0.32-0.176,0.654-0.355,1.01-0.51c1.02-0.494,2.151-0.874,3.126-1.19
			c1.189-0.355,2.271-0.623,3.31-0.82c2.122-0.412,4.407-0.678,6.793-0.793c3.859-0.179,7.942,0.029,12.145,0.58
			c-0.615-0.097-1.229-0.201-1.838-0.289l-1.716-0.208c-0.338-0.043-0.684-0.076-1.026-0.108l-0.687-0.071
			c-2.414-0.228-4.606-0.341-6.699-0.341h-0.19c-2.501,0-4.764,0.146-6.918,0.442c-0.403,0.048-0.804,0.116-1.206,0.183
			l-0.521,0.088c-0.399,0.071-0.808,0.161-1.214,0.251l-0.497,0.11c-1.136,0.294-2.257,0.598-3.345,1.04
			c-0.433,0.147-0.828,0.332-1.252,0.525l-0.697,0.342c-0.421,0.223-0.854,0.452-1.25,0.723c-1.176,0.754-2.081,1.54-2.782,2.406
			c-0.128,0.13-0.206,0.246-0.286,0.362l-0.291,0.406c-0.15,0.19-0.267,0.399-0.387,0.618l-0.348,0.623l-0.36,0.889
			c-0.025,0.065-0.048,0.132-0.07,0.196c-0.021,0.07-0.046,0.138-0.075,0.213l-5.649,16.266c-1.633,4.743-3.079,9.01-4.431,13.043
			c-1.486,4.484-2.928,8.892-4.273,13.093c-1.63,5.125-2.938,9.301-4.118,13.143c-0.678,2.19-1.347,4.386-2.009,6.58l-0.219,0.733
			c-0.591,1.956-1.179,3.91-1.752,5.868c-0.653,2.196-1.3,4.398-1.938,6.602l-1.9,6.62c-1.226,4.266-2.416,8.533-3.729,13.269
			l-3.684,13.271c-1.224,4.433-2.472,8.85-3.725,13.273l-0.347,1.23c-0.508,1.803-1.013,3.604-1.539,5.399
			c-0.63,2.204-1.271,4.408-1.924,6.613c-0.641,2.203-1.294,4.41-1.957,6.607l-0.166,0.558c-0.6,2.015-1.199,4.03-1.821,6.042
			c-1.239,4.088-2.496,8.139-3.54,11.476c0.375-0.046,0.749-0.08,1.124-0.118C998.635,962.85,999.7,959.391,1000.716,956.142z"/>
	</g>
	<g>
		<path fill="#EF4136" d="M1101.933,806.396c1.341,0.564,2.697,1.178,4.114,1.857c4.254,2.044,8.17,4.402,11.641,7.009
			c1.875,1.414,3.582,2.896,5.075,4.404c0.46,0.458,0.888,0.927,1.283,1.379c-0.218-0.123-0.437-0.244-0.668-0.344
			c-0.16-0.068-0.336-0.057-0.484,0.01c-0.098-0.123-0.189-0.251-0.291-0.372c0.007-0.256-0.072-0.512-0.301-0.708
			c-0.354-0.307-0.733-0.581-1.115-0.847c-1.441-1.446-3.049-2.671-4.745-3.538c-0.11-0.11-0.223-0.218-0.332-0.329
			c-0.324-0.326-0.707-0.381-1.043-0.273c-0.41-0.158-0.825-0.301-1.242-0.411c-1.759-0.468-3.172,0.223-3.976,1.376
			c-2.627-1.529-5.508-2.964-8.573-4.274l-0.104,0.801l-0.711,5.336l-0.108,0.808l-0.4,3.036l-6.842-0.439L1079.434,820l2.785-7.672
			l0.271-0.738l1.776-4.895l0.267-0.738c-5.671-1.27-11.154-1.943-16.138-1.943c-9.959,0-16.491,2.662-17.924,7.306
			c-1.238,4.008,1.491,8.944,7.685,13.896c6.095,4.877,14.847,9.227,24.645,12.245c2.822,0.871,5.628,1.59,8.382,2.172
			c-0.039,0.462-0.079,0.922-0.13,1.381c-0.032,0.312-0.078,0.62-0.113,0.933c-1.934,5.467-3.687,11.009-5.465,16.541
			c-4.296,13.375-8.163,26.877-11.885,40.422c-4.978,18.118-9.401,36.36-13.294,54.728c-2.692,7.985-5.286,16.005-7.659,24.092
			c2.772,1.205,5.502,2.498,8.161,3.911c5.27-7.575,12.284-14.026,20.526-18.208c3.105-1.578,6.348-2.937,9.691-3.924
			c0.304-0.502,0.614-1.001,0.91-1.509c2.546-4.367,4.756-8.877,6.75-13.479l-4.506,14.184c0.292-0.063,0.588-0.12,0.879-0.178
			l4.787-15.07l2.771-8.809c0.698-1.892,1.383-3.793,2.041-5.706c1.215-3.517,2.338-7.095,3.345-10.71
			c0.411-1.483,0.809-2.974,1.178-4.468c0.122-0.508,0.235-1.018,0.354-1.523c0.438-1.433,0.879-2.863,1.311-4.297l1.201-3.979
			c0.894-2.939,1.771-5.886,2.646-8.834c0.433-1.457,0.866-2.913,1.302-4.37c1.16-3.877,2.396-8.076,3.882-13.219
			c1.128-3.9,2.319-8.111,3.754-13.259c0.957-3.418,1.887-6.84,2.815-10.269l5.285-19.675l0.314-1.4l0.055-0.525
			c0.035-0.333,0.08-0.745,0.065-1.1l-0.017-0.48c0-0.181-0.01-0.374-0.035-0.525c-0.104-1.199-0.437-2.442-1.004-3.788
			c-0.192-0.497-0.438-0.957-0.678-1.401l-0.393-0.683c-0.238-0.399-0.486-0.814-0.762-1.187c-0.691-1.037-1.493-1.974-2.271-2.856
			l-0.411-0.436c-0.274-0.287-0.543-0.575-0.832-0.854l-0.373-0.359c-0.302-0.291-0.604-0.58-0.917-0.856
			c-1.641-1.479-3.461-2.893-5.563-4.323c-1.809-1.233-3.758-2.422-5.965-3.635l-0.443-0.24c-0.362-0.201-0.725-0.399-1.087-0.58
			l-1.554-0.798l-0.403-0.196c-0.903-0.436-1.815-0.874-2.728-1.289c-1.483-0.673-3.021-1.313-4.586-1.931l-0.104,0.796
			L1101.933,806.396z M1122.846,848.689c0-0.002,0-0.006,0.003-0.006l-0.013,0.033
			C1122.841,848.706,1122.841,848.699,1122.846,848.689z M1106.398,807.533c0.902,0.412,1.808,0.849,2.711,1.284l1.941,0.986
			c0.358,0.179,0.71,0.371,1.064,0.565l0.443,0.243c2.185,1.2,4.112,2.375,5.896,3.596c2.074,1.411,3.87,2.803,5.484,4.261
			c0.312,0.271,0.603,0.553,0.895,0.834l0.377,0.359c0.275,0.269,0.537,0.55,0.803,0.831l0.407,0.425
			c0.746,0.851,1.532,1.765,2.208,2.78c0.264,0.354,0.489,0.732,0.73,1.137l0.373,0.651c0.238,0.441,0.459,0.857,0.641,1.326
			c0.542,1.28,0.854,2.445,0.955,3.588c0.021,0.138,0.025,0.289,0.025,0.444l0.02,0.497c0.013,0.299-0.025,0.663-0.062,0.986
			l-0.051,0.485l-4.761,17.964l-0.823,3.03c-0.93,3.426-1.854,6.846-2.813,10.264c-1.433,5.143-2.624,9.354-3.752,13.251
			c-1.486,5.138-2.721,9.339-3.88,13.214c-0.436,1.454-0.866,2.913-1.302,4.369c-0.876,2.945-1.75,5.892-2.646,8.83l-0.099,0.325
			c0.321-1.881,0.615-3.767,0.845-5.652c0.703-5.75,1.521-11.491,2.285-17.237c1.199-4.326,2.364-8.661,3.459-13.015
			c0.859-3.417,1.8-6.854,2.723-10.298c0.73-2.127,1.465-4.247,2.186-6.323l1.764-5.055c1.814-2.948,2.92-6.117,3.287-9.428
			l1.229-3.527l0.368-1.229l0.076-0.49c0.029-0.173,0.061-0.352,0.061-0.547l0.016-0.332c0.018-0.149,0.02-0.301,0.01-0.427
			c-0.007-0.929-0.203-1.946-0.592-3.102c-0.129-0.412-0.303-0.804-0.469-1.181l-0.365-0.766c-0.177-0.349-0.359-0.71-0.572-1.045
			c-0.532-0.941-1.182-1.805-1.924-2.768c-0.635-0.766-1.396-1.664-2.258-2.525c-1.521-1.534-3.258-3.041-5.16-4.479
			c-3.512-2.637-7.472-5.021-11.772-7.086c-0.235-0.112-0.467-0.221-0.701-0.332
			C1105.921,807.328,1106.162,807.428,1106.398,807.533z"/>
	</g>
	<g>
		<path fill="#EF4136" d="M1032.034,842.938c-0.76,2.33-1.504,4.623-2.219,6.857c-1.634,5.128-2.941,9.307-4.121,13.148
			c-0.679,2.189-1.35,4.39-2.011,6.584l-0.22,0.732c-0.591,1.961-1.178,3.915-1.754,5.874c-0.651,2.197-1.3,4.402-1.938,6.607
			l-1.901,6.622c-1.229,4.27-2.416,8.536-3.73,13.273l-3.685,13.271c-1.224,4.433-2.469,8.847-3.725,13.269l-0.348,1.233
			c-0.505,1.801-1.01,3.599-1.536,5.394c-0.631,2.203-1.269,4.408-1.924,6.612c-0.639,2.202-1.293,4.404-1.953,6.602l-0.168,0.561
			c-0.599,2.009-1.198,4.022-1.818,6.035c-1.28,4.224-2.58,8.405-3.644,11.804c0.165-0.021,0.328-0.046,0.491-0.063
			c0.119-0.015,0.239-0.024,0.356-0.038c1.043-3.337,2.3-7.387,3.54-11.475c0.622-2.011,1.222-4.027,1.82-6.042l0.166-0.558
			c0.663-2.197,1.317-4.404,1.957-6.607c0.653-2.205,1.294-4.41,1.924-6.614c0.527-1.795,1.031-3.596,1.539-5.398l0.348-1.23
			c1.253-4.425,2.501-8.842,3.725-13.273l3.684-13.271c1.313-4.734,2.504-9.002,3.729-13.269l1.9-6.62
			c0.639-2.203,1.283-4.405,1.938-6.602c0.573-1.959,1.161-3.912,1.751-5.868l0.219-0.733c0.662-2.195,1.331-4.39,2.01-6.58
			c1.181-3.842,2.487-8.018,4.118-13.143c1.347-4.201,2.786-8.608,4.273-13.094c1.352-4.032,2.797-8.3,4.43-13.043l5.65-16.265
			c0.029-0.075,0.055-0.143,0.075-0.213c0.021-0.065,0.045-0.131,0.069-0.196l0.361-0.889l0.348-0.623
			c0.119-0.219,0.234-0.427,0.387-0.618l0.291-0.407c0.08-0.115,0.158-0.23,0.286-0.361c0.7-0.866,1.606-1.652,2.781-2.406
			c0.397-0.271,0.829-0.5,1.25-0.723l0.698-0.343c0.423-0.192,0.819-0.376,1.251-0.524c1.088-0.442,2.21-0.746,3.345-1.04
			l0.497-0.11c0.407-0.09,0.814-0.181,1.214-0.251l0.521-0.088c0.402-0.067,0.802-0.135,1.206-0.183
			c2.154-0.296,4.417-0.442,6.918-0.442h0.189c2.094,0,4.285,0.113,6.7,0.341l0.687,0.071c0.344,0.032,0.688,0.065,1.025,0.108
			l1.716,0.208c0.61,0.088,1.224,0.192,1.838,0.288c-4.2-0.55-8.283-0.758-12.144-0.579c-2.386,0.115-4.671,0.382-6.793,0.793
			c-1.039,0.198-2.119,0.465-3.31,0.82c-0.976,0.316-2.106,0.696-3.127,1.19c-0.354,0.154-0.688,0.334-1.01,0.51
			c-0.152,0.085-0.307,0.168-0.497,0.27c-0.126,0.083-0.254,0.164-0.38,0.24c-0.329,0.209-0.67,0.426-0.974,0.67
			c-0.98,0.733-1.718,1.47-2.235,2.216c-0.103,0.12-0.178,0.24-0.244,0.358l-0.188,0.301c-0.126,0.188-0.211,0.375-0.292,0.559
			l-0.24,0.521l-0.227,0.688c-0.017,0.058-0.035,0.13-0.056,0.211l-4.543,16.834c-1.122,4.124-2.328,8.465-3.685,13.274
			c-1.338,4.721-2.593,9.05-3.836,13.229c-1.419,4.774-2.724,9.088-3.988,13.181l-0.257,0.836c-0.592,1.911-1.186,3.824-1.79,5.735
			c-0.687,2.188-1.379,4.375-2.087,6.564c-0.693,2.187-1.401,4.366-2.116,6.546l-2.149,6.542c-1.438,4.361-2.913,8.714-4.385,13.064
			l-4.432,13.046c-1.332,3.907-2.643,7.824-3.95,11.739l-0.442,1.323c-0.732,2.183-1.457,4.354-2.175,6.537
			c-0.716,2.182-1.435,4.372-2.134,6.551c-0.708,2.19-1.411,4.372-2.104,6.566c-0.694,2.183-1.39,4.373-2.065,6.569
			c-1.017,3.249-2.081,6.708-3.401,11.059c0.28-0.027,0.56-0.063,0.84-0.088c1.278-4.199,2.314-7.57,3.307-10.739
			c0.677-2.194,1.37-4.384,2.063-6.564c0.693-2.194,1.395-4.375,2.103-6.563c0.7-2.18,1.419-4.367,2.135-6.546
			c0.715-2.181,1.438-4.354,2.172-6.534l0.441-1.324c1.309-3.912,2.62-7.83,3.95-11.734l4.43-13.045
			c1.475-4.354,2.947-8.709,4.39-13.072l2.149-6.542c0.716-2.183,1.427-4.364,2.12-6.552c0.708-2.188,1.4-4.379,2.087-6.568
			c0.604-1.911,1.197-3.827,1.79-5.738l0.259-0.836c1.263-4.098,2.568-8.412,3.99-13.191c1.24-4.181,2.498-8.513,3.839-13.235
			c1.354-4.812,2.56-9.156,3.685-13.284l4.485-16.629l0.542-1.518c0.064-0.147,0.131-0.299,0.23-0.448l0.203-0.324
			c0.051-0.09,0.102-0.171,0.193-0.284c0.492-0.708,1.173-1.384,2.097-2.077c0.278-0.226,0.585-0.419,0.912-0.623
			c0.13-0.083,0.261-0.166,0.354-0.229c0.161-0.085,0.318-0.171,0.479-0.259c0.307-0.169,0.615-0.337,0.959-0.484
			c0.992-0.48,2.09-0.85,3.033-1.153c1.158-0.347,2.213-0.609,3.229-0.801c2.087-0.407,4.33-0.668,6.682-0.781
			c4.29-0.198,8.859,0.063,13.566,0.776c2.246,0.347,4.269,0.728,6.177,1.151l0.214-0.59l0.269-0.737
			c-2.159-0.514-4.305-0.957-6.419-1.318c-1.14-0.196-2.285-0.375-3.436-0.54l-1.723-0.211c-0.347-0.042-0.695-0.075-1.048-0.11
			l-0.686-0.067c-2.44-0.233-4.658-0.348-6.775-0.348h-0.189c-2.536,0-4.834,0.146-7.02,0.447c-0.409,0.05-0.821,0.121-1.232,0.188
			l-0.522,0.088c-0.419,0.072-0.838,0.166-1.256,0.261l-0.504,0.111c-1.178,0.306-2.328,0.618-3.44,1.066
			c-0.449,0.156-0.885,0.356-1.304,0.55l-0.734,0.359c-0.439,0.234-0.893,0.472-1.316,0.761c-1.237,0.793-2.202,1.633-2.934,2.537
			c-0.134,0.132-0.237,0.283-0.344,0.433l-0.275,0.389c-0.179,0.226-0.314,0.47-0.444,0.706l-0.369,0.668l-0.382,0.932
			c-0.035,0.091-0.061,0.166-0.086,0.238c-0.021,0.061-0.037,0.118-0.064,0.193l-5.654,16.279c-0.292,0.839-0.572,1.66-0.85,2.472
			c-1.293,3.773-2.476,7.257-3.586,10.58C1033.395,838.797,1032.705,840.881,1032.034,842.938z"/>
	</g>
	<g>
		<path fill="#55C7DD" d="M968.48,975.953c-2.715,1.768-4.475,4.111-6.697,6.404c-1.667,1.72,0.443,4.392,2.521,3.267
			c4.586-2.481,10.332-3.576,15.341-4.957c5.313-1.461,10.699-1.921,16.188-1.811c11.496,0.235,23.063,2.313,34.059,5.607
			c10.634,3.182,20.994,7.808,30.375,13.755c0.399,0.254,0.81,0.495,1.205,0.754c2.119,1.387,4.142,2.898,6.078,4.508
			c2.503,2.078,4.861,4.326,7.089,6.723c2.172,2.34,4.102,4.866,6.51,6.986c2.286,2.013,4.091,4.718,7.281,5.351
			c1.544,0.308,3.565-0.138,4.286-1.745c0.056-0.118,0.101-0.237,0.146-0.356c2.588-6.432-2.377-13.943-6.265-18.811
			c-4.344-5.439-10.127-9.898-15.785-13.877c-1.138-0.798-2.301-1.566-3.479-2.314c0.874-0.839,1.743-1.681,2.602-2.531
			c2.285-2.267,4.727-4.29,7.313-6.117c0.377-0.241,0.743-0.495,1.1-0.771c1.783-1.203,3.641-2.313,5.565-3.343
			c4.756-2.539,9.716-4.455,15.099-5.026c0.186-0.021,0.365-0.05,0.551-0.068c2.769-0.243,5.575,0,8.343,0.128
			c2.663,0.123,5.409,1.042,7.978,0.104c1.711-0.625,2.554-2.403,1.658-4.075c-2.801-5.217-11.549-6.074-16.797-5.88
			c-1.924,0.069-3.822,0.306-5.696,0.668c-0.291,0.058-0.587,0.116-0.879,0.178c-1.061,0.229-2.114,0.5-3.154,0.806
			c-3.345,0.987-6.586,2.347-9.692,3.925c-8.241,4.181-15.258,10.632-20.525,18.208c-2.659-1.414-5.389-2.707-8.161-3.912
			c-5.863-2.551-11.923-4.668-17.979-6.432c-11.763-3.423-24.25-5.285-36.5-4.184c-0.28,0.025-0.56,0.061-0.84,0.088
			c-0.375,0.038-0.75,0.073-1.124,0.118c-0.118,0.013-0.236,0.021-0.355,0.038c-0.164,0.017-0.326,0.042-0.491,0.063
			c-6.188,0.773-12.346,1.972-18.231,4.059C974.04,972.565,971.203,974.181,968.48,975.953z"/>
	</g>
	<g>
		<polygon fill="#FEC20F" points="1086.203,801.358 1084.53,805.956 1084.265,806.694 1082.487,811.589 1082.218,812.327 
			1079.433,819.999 1093.108,820.875 1099.949,821.314 1100.351,818.279 1100.459,817.472 1101.17,812.136 1101.275,811.335 
			1101.933,806.396 1102.028,805.69 1102.134,804.894 1108.719,755.454 1102.878,755.454 1086.686,800.03 1086.417,800.768 		"/>
	</g>
	<g>
		<path fill="#FBB040" d="M1091.216,744.561C1091.063,743.979,1090.965,743.612,1091.216,744.561L1091.216,744.561z"/>
	</g>
	<g>
		<path fill="none" d="M1091.216,744.561c0.01,0.03,0.015,0.059,0.024,0.091"/>
	</g>
	<g>
		<path fill="#FEC20F" d="M1091.316,744.945c-1.131-4.279-14.963-20.622-21.392-14.273
			C1058.701,741.756,1095.206,759.673,1091.316,744.945z"/>
	</g>
	<g>
		<path fill="#FBB040" d="M1091.24,744.651c0.021,0.088,0.048,0.186,0.076,0.294C1091.771,746.676,1091.467,745.508,1091.24,744.651
			z"/>
	</g>
	<g>
		<path fill="#FBB040" d="M1093.936,699.993C1094.068,699.976,1093.717,699.96,1093.936,699.993L1093.936,699.993z"/>
	</g>
	<g>
		<path fill="#FBB040" d="M1093.936,699.993C1092.616,699.807,1093.495,700.045,1093.936,699.993L1093.936,699.993z"/>
	</g>
	<g>
		<path fill="#FEC20F" d="M1105.017,724.504c-0.497-1.803-0.288-1.052-0.002-0.013c-2.409-8.756-2.766-21.188-12.243-24.688
			C1073.818,692.778,1112.013,749.892,1105.017,724.504z"/>
	</g>
	<g>
		<path fill="#FBB040" d="M1105.015,724.492c0.002,0.005,0.002,0.01,0.002,0.013
			C1105.961,727.925,1105.411,725.931,1105.015,724.492z"/>
	</g>
	<g>
		<path fill="#FBB040" d="M1145.954,712.109c0.03,0.078,0.05,0.13,0.055,0.147C1146.004,712.242,1145.984,712.192,1145.954,712.109z
			"/>
	</g>
	<g>
		<path fill="#FEC20F" d="M1118.86,737.269c7.798,1.198,29.995-17.299,26.059-27.962
			C1139.439,694.451,1111.021,736.063,1118.86,737.269z"/>
	</g>
	<g>
		<path fill="#FBB040" d="M1144.849,709.116C1144.834,709.068,1144.834,709.071,1144.849,709.116L1144.849,709.116z"/>
	</g>
	<g>
		<path fill="#FBB040" d="M1144.849,709.116c0.017,0.035,0.035,0.09,0.07,0.189c0.613,1.658,0.919,2.489,1.035,2.804
			C1145.737,711.517,1144.962,709.417,1144.849,709.116z"/>
	</g>
	<g>
		<path fill="#FEC20F" d="M1125.018,760.783c4.183,6.355,29.293,6.594,23.597-3.151
			C1145.087,751.6,1119.787,752.835,1125.018,760.783z"/>
	</g>
	<g>
		<path fill="#FBB040" d="M1148.613,757.632C1149.773,759.615,1146.787,754.508,1148.613,757.632L1148.613,757.632z"/>
	</g>
</g>
</svg>
