<?xml version="1.0" encoding="utf-8"?>
<!-- Generator: Adobe Illustrator 16.0.0, SVG Export Plug-In . SVG Version: 6.00 Build 0)  -->
<!DOCTYPE svg PUBLIC "-//W3C//DTD SVG 1.1//EN" "http://www.w3.org/Graphics/SVG/1.1/DTD/svg11.dtd">
<svg version="1.1" id="Layer_1" xmlns="http://www.w3.org/2000/svg" xmlns:xlink="http://www.w3.org/1999/xlink" x="0px" y="0px"
	 width="1157px" height="375px" viewBox="0 0 1157 375" enable-background="new 0 0 1157 375" xml:space="preserve">
<g id="layer101">
	<path fill="#6A2C6E" d="M700.5,373.2c-7.3-2.5-13.5-6.4-23.4-14.7c-19.5-16.2-26-29.3-26.1-52.7V298h-66.8h-66.8l-4.101,8.3
		C504,325.1,486,342.9,466.2,352.9c-14.4,7.3-31.601,10.899-84.7,18c-24.3,3.199-25.6,3.3-35.5,2.199c-12.2-1.399-19-3.199-32.2-8.5
		C294.4,356.7,276.2,344.4,260,328l-9.5-9.7l-66.4,3.101c-56.1,2.5-67.9,2.8-76.5,1.8c-32.4-3.7-57.1-18-84.3-49.101
		C14.8,264.3,10.1,256.4,7,246.5c-1.9-6.2-2.4-13-4.6-58C0.8,156.8,0,129.8,0.3,117c0.3-19.3,0.5-21,3.1-28.5
		c9-26.1,24.7-40.7,55.1-51.4c9.9-3.5,29.4-8.6,36.5-9.5c9-1.2,93.8-4.8,104.1-4.4c9.8,0.3,11.1,0.6,18,4
		c14,6.9,23.7,20.2,25.8,35.3c0.5,3.9,1.3,14,1.6,22.5s0.8,15.6,0.9,15.8c0.2,0.2,4.4-2.3,9.2-5.5c4.9-3.2,10.7-6.4,12.9-7
		c3.3-1,77.1-12.9,158-25.5l15-2.4l0.5-18.9c0.6-21,1-22.6,7.4-28.2c4.399-3.9,6-4.4,30.899-9.3l20.9-4h47.6
		c29.3,0,49.4,0.4,52.2,1.1c2.5,0.6,7.1,2.3,10.3,4l5.8,2.9l5.7-2.9c3.101-1.6,8.101-3.4,11-4C639.4-0.3,722.9-0.4,731.4,1
		C745.7,3.3,759.1,13.4,765.8,26.9l3.7,7.5l0.3,21.8l0.3,21.8H801.9c24.699,0,33.8,0.4,41.199,1.6c9.801,1.7,23.101,6,30.9,9.9
		l4.5,2.3l3.4-6.1c4.199-7.6,18.399-21.9,26.3-26.5c9.2-5.5,18.1-7.9,42.6-11.6c35.101-5.5,34.7-5.5,80.7-0.2
		c44.3,5.1,47.5,5.6,59,9.3c30.9,10,52.8,31.9,63,63.3c2.5,7.5,2.8,10.5,3.2,24.5c0.5,17.2,0.899,13.5-9.7,93.5
		c-4.8,37.1-6.5,42.9-16.3,57.5c-18.601,27.6-54,45.5-89.8,45.5c-10.9,0-75.101-7.5-85.601-10c-10.399-2.5-21.8-7-29.399-11.6
		C922.8,317.6,920,316,919.6,316c-0.3,0-1.8,2.4-3.199,5.3c-6.9,13.5-19.101,27.4-31.301,35.601
		C876.4,362.8,864.2,368.4,852.9,371.7l-9.4,2.7l-69,0.3C710.8,375,705.1,374.8,700.5,373.2z"/>
</g>
<g id="layer102">
	<path fill="#EC008C" d="M858.4,338.8C852.9,334,847,324.4,847,320.3c0-2.6,0.8-4.2,3.8-6.899c5.9-5.5,7-5.4,20.5,1.199
		c6.5,3.2,12.5,6.801,13.3,7.9c2.5,3.5,1.7,8.1-2.1,12.4c-4.6,5-9.1,7.1-15.4,7.1C862.8,342,861.5,341.5,858.4,338.8z"/>
	<path fill="#EC008C" d="M454,327.2c-2.5-1.601-6.6-5.2-9.2-8c-3.899-4.2-4.8-5.8-4.8-8.7c0-4.4,4.4-11.2,7.8-12.1
		c2.3-0.601,15.2,2.199,24.2,5.3c8.8,3.1,10.3,8.6,4.8,16.899c-4.399,6.301-7.7,8.601-13.5,9.101C459.3,330.1,457.8,329.7,454,327.2
		z"/>
	<path fill="#EC008C" d="M296.5,325.4c-18.6-2.9-34.2-13.801-41.8-29.4c-4.2-8.5-3.2-2.7-19.8-107.8l-10.3-65.3l2.1-2.1
		c1.9-1.8,7.7-3,41.5-8.4c21.6-3.4,39.4-6.1,39.6-5.9c0.2,0.1,5.2,31.1,11.3,68.6c6,37.6,11.4,69.4,11.9,70.7
		c1.4,3.101,5.4,4.8,8.8,3.601c5.8-2,5.9-0.301-5.9-73.4c-6-37.1-10.9-68.5-10.9-69.7c0-1.2,0.8-2.4,1.8-2.7
		c0.9-0.3,18.7-3.3,39.5-6.6c34.9-5.6,38-6,40.2-4.6c1.3,0.9,2.6,2.3,2.8,3.3c0.3,1,6.3,37.7,13.3,81.7c12.601,78.6,12.7,80,11.5,87
		c-3.6,21-21,40.5-43,48.199C373.5,318,307.8,327.1,296.5,325.4z"/>
	<path fill="#EC008C" d="M667.5,314.7c-1.4-2.101-1.5-14.3-1.3-107.101c0.3-103.399,0.3-104.8,2.3-106.2c1.7-1.3,10.9-1.4,64.5-1.2
		c62.3,0.3,62.5,0.3,69.5,2.7c20.5,6.8,33.8,19.7,39.8,38.6c1.8,5.8,2.2,9.2,2.101,19.5c-0.101,19.1-3.601,31.2-11.7,40.8
		c-2.101,2.4-3.7,5.2-3.7,6.2c0,0.9,1.5,3.7,3.4,6.1c8.5,11.101,11.8,22.301,12,40.4c0.1,13.9-1.101,19.9-6.2,30.5
		c-5.101,10.5-14,19.2-25.2,24.7c-15,7.3-15.2,7.3-83.4,7.3H669L667.5,314.7z M775,258v-23h-23h-23v23v23h23h23V258z M717.5,192
		c4.9-4.9,9.4-9,10-9s5.1,4.1,10,9c7,7,9.6,9,11.7,9c3.7,0,6.8-3.2,6.8-7.1c0-2.601-1.6-4.801-9.2-12.601l-9.2-9.3l9.2-9.3
		c7.601-7.6,9.2-9.8,9.2-12.3c0-3.1-2.3-6-5-6.4c-4-0.6-5.9,0.6-14.4,9l-9.199,9l-8.4-8.5c-4.6-4.6-9.5-8.8-11-9.3
		c-4.7-1.7-9,1.6-9,7c0,1.5,3,5.2,9.2,11.5l9.2,9.3l-9.2,9.3c-7.601,7.8-9.2,10-9.2,12.601c0,3.899,3.1,7.1,6.8,7.1
		C707.9,201,710.5,199,717.5,192z"/>
	<path fill="#EC008C" d="M1072.4,314.1c-3.801-2.3-8.301-8-11.801-14.8c-4.199-8.3-3.3-12.1,4.101-17.1c6-4.2,11.1-2.601,23.8,7
		c10.5,8,11.7,11.8,5.8,18.8C1088,315.6,1079,318.1,1072.4,314.1z"/>
	<path fill="#EC008C" d="M970.5,279.9c-50.5-5.9-57.9-7.5-69.4-14.9c-8.699-5.6-14.5-12-18.6-20.3c-6.5-13.3-6.5-14.101-0.6-75.2
		c2.899-29.7,5.899-56.9,6.699-60.4c4.101-18,19.101-34.8,37-41.3c10.101-3.6,19.801-3.5,60.4,1.1c20.1,2.3,39.9,5,44.1,6.1
		c19.5,4.8,34.2,17.4,40.7,34.9c4.101,10.9,4,21.7-0.2,54.1c-10.6,81.2-10.199,78.7-12.899,84.2c-5.601,11.2-14.4,19.5-28.2,26.399
		C1013.8,282.4,1001.3,283.5,970.5,279.9z M999.6,197.8C982.1,149.1,978.7,140,978.1,140c-0.6,0.1-37.199,55.9-37.8,57.7
		c-0.3,0.7,52.3,8.8,59.9,9.2l2.8,0.1L999.6,197.8z"/>
	<path fill="#EC008C" d="M67.8,270c-22.9-3.9-41-18.8-46.7-38.5c-1.3-4.3-6.1-95.9-6.1-116c0-19.8,4.8-32.9,16.9-45.7
		c7-7.5,16.7-13.1,25.6-14.7c2.8-0.5,27-1.9,53.8-3.2l48.8-2.2l2,2c1.9,1.8,2.2,4.3,3.4,29.9c0.8,15.3,1.4,29.8,1.5,32.2v4.2h-32.6
		h-32.6l-3,3l-3,3l0.7,20l0.8,20H86.4c-6,0-11.4,0.4-12,0.8c-0.8,0.5-1,3.6-0.6,10.1l0.5,9.4l11.7-0.5l11.8-0.5l0.6,4.5
		c0.3,2.5,0.6,7.3,0.6,10.8v6.4h6.4c3.5,0,8.4-0.3,11-0.6l4.7-0.7l-0.3-10.601l-0.3-10.6l11.8-0.3l11.7-0.3v-6.2
		c0-3.4-0.3-7.9-0.7-10.1l-0.6-3.8l-11.7,0.7l-11.7,0.7l-0.7-12c-1.2-20-3.1-19.2,43.8-19.2c30.2,0,35.7,0.2,37,1.5
		c2,2.1,2.2,4.7,5.1,69.7c2.8,60.899,2.8,61.3-1.8,62.3c-3.4,0.7-111,5.5-121.2,5.4C76.6,270.8,70.4,270.4,67.8,270z M147.9,245.6
		c5.9-3.1,8.1-9.6,5.2-16.1c-3.3-7.6-11.5-10.6-17.9-6.5c-6.6,4.1-7.7,12.8-2.5,19.1C136.9,247.1,142.5,248.3,147.9,245.6z
		 M176.5,228c5.6-5.3,5.7-13,0.1-18.6c-10.4-10.4-25.9,1.399-19.2,14.5C161.1,230.9,171.1,233.1,176.5,228z"/>
	<path fill="#EC008C" d="M459.5,239.8c-1.1-0.6-2.3-1.6-2.7-2.2C456.4,237,456,189.4,456,131.8C456,28.3,456,27,458,25
		c1.9-1.9,3.3-2,44.9-2H545.8l2.4,2.8c1.2,1.6,7,11,12.8,21S571.7,65,572,65s5-9,10.5-20.1c5.5-11,10.8-20.5,11.7-21
		C595.1,23.4,614.5,23,638,23h42.1l2.4,2.5l2.5,2.4v28.6V85h-7.2c-9.399,0-14,1.3-18.5,5.3c-7.6,6.7-7.3,2.8-7.3,81V241h-25.5
		c-24.2,0-25.6-0.1-27.5-2c-1.8-1.8-2-3.3-2-19.5c0-9.6-0.3-17.5-0.7-17.5c-0.5,0-5.1,7.1-10.3,15.7
		C574.2,237.1,573.5,238,570.1,238c-3.8,0-5.399-2.1-16.199-20.5l-9.4-16l-0.3,17.7l-0.2,17.7l-2.7,2c-2.5,2-3.7,2.1-41.2,2.1
		C473.2,240.9,460.9,240.6,459.5,239.8z"/>
	<path fill="#EC008C" d="M187.4,68.3C184.4,66,181,60,181,57c0-4.3,5.9-10.1,14.4-14.1c6.9-3.3,13.1-3.7,17.6-1.4
		c4.3,2.2,10,11.1,10,15.6c0,5.9-2.3,7.8-11.5,9.4C200.6,68.4,188.7,69.3,187.4,68.3z"/>
	<path fill="#EC008C" d="M713.7,46c-5.3-1-7.8-3.8-8.4-9.4c-0.7-6.3,0.8-8.2,10.8-13.6c10.4-5.5,16-5.9,23-1.8
		c5.101,3,9.801,9.3,10.601,14.1c0.6,4.2-2.601,8.3-7.5,9.6C737.1,46.2,718.3,46.9,713.7,46z"/>
</g>
<g id="layer103">
	<path fill="#F47721" d="M858.4,338.8C852.9,334,847,324.4,847,320.3c0-2.6,0.8-4.2,3.8-6.899c5.9-5.5,7-5.4,20.5,1.199
		c6.5,3.2,12.5,6.801,13.3,7.9c2.5,3.5,1.7,8.1-2.1,12.4c-4.6,5-9.1,7.1-15.4,7.1C862.8,342,861.5,341.5,858.4,338.8z"/>
	<path fill="#F47721" d="M454,327.2c-2.5-1.601-6.6-5.2-9.2-8c-3.899-4.2-4.8-5.8-4.8-8.7c0-4.4,4.4-11.2,7.8-12.1
		c2.3-0.601,15.2,2.199,24.2,5.3c8.8,3.1,10.3,8.6,4.8,16.899c-4.399,6.301-7.7,8.601-13.5,9.101C459.3,330.1,457.8,329.7,454,327.2
		z"/>
	<path fill="#F47721" d="M296.5,325.4c-18.6-2.9-34.2-13.801-41.8-29.4c-4.2-8.5-3.2-2.7-19.8-107.8l-10.3-65.3l2.1-2.1
		c1.9-1.8,7.7-3,41.5-8.4c21.6-3.4,39.4-6.1,39.6-5.9c0.2,0.1,5.2,31.1,11.3,68.6c6,37.6,11.4,69.4,11.9,70.7
		c1.4,3.101,5.4,4.8,8.8,3.601c5.8-2,5.9-0.301-5.9-73.4c-6-37.1-10.9-68.5-10.9-69.7c0-1.2,0.8-2.4,1.8-2.7
		c0.9-0.3,18.7-3.3,39.5-6.6c34.9-5.6,38-6,40.2-4.6c1.3,0.9,2.6,2.3,2.8,3.3c0.3,1,6.3,37.7,13.3,81.7c12.601,78.6,12.7,80,11.5,87
		c-3.6,21-21,40.5-43,48.199C373.5,318,307.8,327.1,296.5,325.4z"/>
	<path fill="#F47721" d="M667.5,314.7c-1.4-2.101-1.5-14.3-1.3-107.101c0.3-103.399,0.3-104.8,2.3-106.2c1.7-1.3,10.9-1.4,64.5-1.2
		c62.3,0.3,62.5,0.3,69.5,2.7c20.5,6.8,33.8,19.7,39.8,38.6c1.8,5.8,2.2,9.2,2.101,19.5c-0.101,19.1-3.601,31.2-11.7,40.8
		c-2.101,2.4-3.7,5.2-3.7,6.2c0,0.9,1.5,3.7,3.4,6.1c8.5,11.101,11.8,22.301,12,40.4c0.1,13.9-1.101,19.9-6.2,30.5
		c-5.101,10.5-14,19.2-25.2,24.7c-15,7.3-15.2,7.3-83.4,7.3H669L667.5,314.7z M775,258v-23h-23h-23v23v23h23h23V258z M717.5,192
		c4.9-4.9,9.4-9,10-9s5.1,4.1,10,9c7,7,9.6,9,11.7,9c3.7,0,6.8-3.2,6.8-7.1c0-2.601-1.6-4.801-9.2-12.601l-9.2-9.3l9.2-9.3
		c7.601-7.6,9.2-9.8,9.2-12.3c0-3.1-2.3-6-5-6.4c-4-0.6-5.9,0.6-14.4,9l-9.199,9l-8.4-8.5c-4.6-4.6-9.5-8.8-11-9.3
		c-4.7-1.7-9,1.6-9,7c0,1.5,3,5.2,9.2,11.5l9.2,9.3l-9.2,9.3c-7.601,7.8-9.2,10-9.2,12.601c0,3.899,3.1,7.1,6.8,7.1
		C707.9,201,710.5,199,717.5,192z"/>
	<path fill="#F47721" d="M1072.4,314.1c-3.801-2.3-8.301-8-11.801-14.8c-4.199-8.3-3.3-12.1,4.101-17.1c6-4.2,11.1-2.601,23.8,7
		c10.5,8,11.7,11.8,5.8,18.8C1088,315.6,1079,318.1,1072.4,314.1z"/>
	<path fill="#F47721" d="M970.5,279.9c-50.5-5.9-57.9-7.5-69.4-14.9c-8.699-5.6-14.5-12-18.6-20.3c-6.5-13.3-6.5-14.101-0.6-75.2
		c2.899-29.7,5.899-56.9,6.699-60.4c4.101-18,19.101-34.8,37-41.3c10.101-3.6,19.801-3.5,60.4,1.1c20.1,2.3,39.9,5,44.1,6.1
		c19.5,4.8,34.2,17.4,40.7,34.9c4.101,10.9,4,21.7-0.2,54.1c-10.6,81.2-10.199,78.7-12.899,84.2c-5.601,11.2-14.4,19.5-28.2,26.399
		C1013.8,282.4,1001.3,283.5,970.5,279.9z M999.6,197.8C982.1,149.1,978.7,140,978.1,140c-0.6,0.1-37.199,55.9-37.8,57.7
		c-0.3,0.7,52.3,8.8,59.9,9.2l2.8,0.1L999.6,197.8z"/>
	<path fill="#F47721" d="M459.5,239.8c-1.1-0.6-2.3-1.6-2.7-2.2C456.4,237,456,189.4,456,131.8C456,28.3,456,27,458,25
		c1.9-1.9,3.3-2,44.9-2H545.8l2.4,2.8c1.2,1.6,7,11,12.8,21S571.7,65,572,65s5-9,10.5-20.1c5.5-11,10.8-20.5,11.7-21
		C595.1,23.4,614.5,23,638,23h42.1l2.4,2.5l2.5,2.4v28.6V85h-7.2c-9.399,0-14,1.3-18.5,5.3c-7.6,6.7-7.3,2.8-7.3,81V241h-25.5
		c-24.2,0-25.6-0.1-27.5-2c-1.8-1.8-2-3.3-2-19.5c0-9.6-0.3-17.5-0.7-17.5c-0.5,0-5.1,7.1-10.3,15.7
		C574.2,237.1,573.5,238,570.1,238c-3.8,0-5.399-2.1-16.199-20.5l-9.4-16l-0.3,17.7l-0.2,17.7l-2.7,2c-2.5,2-3.7,2.1-41.2,2.1
		C473.2,240.9,460.9,240.6,459.5,239.8z"/>
	<path fill="#F47721" d="M187.4,68.3C184.4,66,181,60,181,57c0-4.3,5.9-10.1,14.4-14.1c6.9-3.3,13.1-3.7,17.6-1.4
		c4.3,2.2,10,11.1,10,15.6c0,5.9-2.3,7.8-11.5,9.4C200.6,68.4,188.7,69.3,187.4,68.3z"/>
	<path fill="#F47721" d="M713.7,46c-5.3-1-7.8-3.8-8.4-9.4c-0.7-6.3,0.8-8.2,10.8-13.6c10.4-5.5,16-5.9,23-1.8
		c5.101,3,9.801,9.3,10.601,14.1c0.6,4.2-2.601,8.3-7.5,9.6C737.1,46.2,718.3,46.9,713.7,46z"/>
</g>
<g id="layer104">
	<path fill="#FCAF17" d="M858.4,338.8C852.9,334,847,324.4,847,320.3c0-2.6,0.8-4.2,3.8-6.899c5.9-5.5,7-5.4,20.5,1.199
		c6.5,3.2,12.5,6.801,13.3,7.9c2.5,3.5,1.7,8.1-2.1,12.4c-4.6,5-9.1,7.1-15.4,7.1C862.8,342,861.5,341.5,858.4,338.8z"/>
	<path fill="#FCAF17" d="M454,327.2c-2.5-1.601-6.6-5.2-9.2-8c-3.899-4.2-4.8-5.8-4.8-8.7c0-4.4,4.4-11.2,7.8-12.1
		c2.3-0.601,15.2,2.199,24.2,5.3c8.8,3.1,10.3,8.6,4.8,16.899c-4.399,6.301-7.7,8.601-13.5,9.101C459.3,330.1,457.8,329.7,454,327.2
		z"/>
	<path fill="#FCAF17" d="M296.5,325.4c-18.6-2.9-34.2-13.801-41.8-29.4c-4.2-8.5-3.2-2.7-19.8-107.8l-10.3-65.3l2.1-2.1
		c1.9-1.8,7.7-3,41.5-8.4c21.6-3.4,39.4-6.1,39.6-5.9c0.2,0.1,5.2,31.1,11.3,68.6c6,37.6,11.4,69.4,11.9,70.7
		c1.4,3.101,5.4,4.8,8.8,3.601c5.8-2,5.9-0.301-5.9-73.4c-6-37.1-10.9-68.5-10.9-69.7c0-1.2,0.8-2.4,1.8-2.7
		c0.9-0.3,18.7-3.3,39.5-6.6c34.9-5.6,38-6,40.2-4.6c1.3,0.9,2.6,2.3,2.8,3.3c0.3,1,6.3,37.7,13.3,81.7c12.601,78.6,12.7,80,11.5,87
		c-3.6,21-21,40.5-43,48.199C373.5,318,307.8,327.1,296.5,325.4z"/>
	<path fill="#FCAF17" d="M667.5,314.7c-1.4-2.101-1.5-14.3-1.3-107.101c0.3-103.399,0.3-104.8,2.3-106.2c1.7-1.3,10.9-1.4,64.5-1.2
		c62.3,0.3,62.5,0.3,69.5,2.7c20.5,6.8,33.8,19.7,39.8,38.6c1.8,5.8,2.2,9.2,2.101,19.5c-0.101,19.1-3.601,31.2-11.7,40.8
		c-2.101,2.4-3.7,5.2-3.7,6.2c0,0.9,1.5,3.7,3.4,6.1c8.5,11.101,11.8,22.301,12,40.4c0.1,13.9-1.101,19.9-6.2,30.5
		c-5.101,10.5-14,19.2-25.2,24.7c-15,7.3-15.2,7.3-83.4,7.3H669L667.5,314.7z M775,258v-23h-23h-23v23v23h23h23V258z M717.5,192
		c4.9-4.9,9.4-9,10-9s5.1,4.1,10,9c7,7,9.6,9,11.7,9c3.7,0,6.8-3.2,6.8-7.1c0-2.601-1.6-4.801-9.2-12.601l-9.2-9.3l9.2-9.3
		c7.601-7.6,9.2-9.8,9.2-12.3c0-3.1-2.3-6-5-6.4c-4-0.6-5.9,0.6-14.4,9l-9.199,9l-8.4-8.5c-4.6-4.6-9.5-8.8-11-9.3
		c-4.7-1.7-9,1.6-9,7c0,1.5,3,5.2,9.2,11.5l9.2,9.3l-9.2,9.3c-7.601,7.8-9.2,10-9.2,12.601c0,3.899,3.1,7.1,6.8,7.1
		C707.9,201,710.5,199,717.5,192z"/>
	<path fill="#FCAF17" d="M1072.4,314.1c-3.801-2.3-8.301-8-11.801-14.8c-4.199-8.3-3.3-12.1,4.101-17.1c6-4.2,11.1-2.601,23.8,7
		c10.5,8,11.7,11.8,5.8,18.8C1088,315.6,1079,318.1,1072.4,314.1z"/>
	<path fill="#FCAF17" d="M459.5,239.8c-1.1-0.6-2.3-1.6-2.7-2.2C456.4,237,456,189.4,456,131.8C456,28.3,456,27,458,25
		c1.9-1.9,3.3-2,44.9-2H545.8l2.4,2.8c1.2,1.6,7,11,12.8,21S571.7,65,572,65s5-9,10.5-20.1c5.5-11,10.8-20.5,11.7-21
		C595.1,23.4,614.5,23,638,23h42.1l2.4,2.5l2.5,2.4v28.6V85h-7.2c-9.399,0-14,1.3-18.5,5.3c-7.6,6.7-7.3,2.8-7.3,81V241h-25.5
		c-24.2,0-25.6-0.1-27.5-2c-1.8-1.8-2-3.3-2-19.5c0-9.6-0.3-17.5-0.7-17.5c-0.5,0-5.1,7.1-10.3,15.7
		C574.2,237.1,573.5,238,570.1,238c-3.8,0-5.399-2.1-16.199-20.5l-9.4-16l-0.3,17.7l-0.2,17.7l-2.7,2c-2.5,2-3.7,2.1-41.2,2.1
		C473.2,240.9,460.9,240.6,459.5,239.8z"/>
	<path fill="#FCAF17" d="M187.4,68.3C184.4,66,181,60,181,57c0-4.3,5.9-10.1,14.4-14.1c6.9-3.3,13.1-3.7,17.6-1.4
		c4.3,2.2,10,11.1,10,15.6c0,5.9-2.3,7.8-11.5,9.4C200.6,68.4,188.7,69.3,187.4,68.3z"/>
	<path fill="#FCAF17" d="M713.7,46c-5.3-1-7.8-3.8-8.4-9.4c-0.7-6.3,0.8-8.2,10.8-13.6c10.4-5.5,16-5.9,23-1.8
		c5.101,3,9.801,9.3,10.601,14.1c0.6,4.2-2.601,8.3-7.5,9.6C737.1,46.2,718.3,46.9,713.7,46z"/>
</g>
<g id="layer105">
	<path fill="#FFF207" d="M858.4,338.8C852.9,334,847,324.4,847,320.3c0-2.6,0.8-4.2,3.8-6.899c5.9-5.5,7-5.4,20.5,1.199
		c6.5,3.2,12.5,6.801,13.3,7.9c2.5,3.5,1.7,8.1-2.1,12.4c-4.6,5-9.1,7.1-15.4,7.1C862.8,342,861.5,341.5,858.4,338.8z"/>
	<path fill="#FFF207" d="M454,327.2c-2.5-1.601-6.6-5.2-9.2-8c-3.899-4.2-4.8-5.8-4.8-8.7c0-4.4,4.4-11.2,7.8-12.1
		c2.3-0.601,15.2,2.199,24.2,5.3c8.8,3.1,10.3,8.6,4.8,16.899c-4.399,6.301-7.7,8.601-13.5,9.101C459.3,330.1,457.8,329.7,454,327.2
		z"/>
	<path fill="#FFF207" d="M296.5,325.4c-18.6-2.9-34.2-13.801-41.8-29.4c-4.2-8.5-3.2-2.7-19.8-107.8l-10.3-65.3l2.1-2.1
		c1.9-1.8,7.7-3,41.5-8.4c21.6-3.4,39.4-6.1,39.6-5.9c0.2,0.1,5.2,31.1,11.3,68.6c6,37.6,11.4,69.4,11.9,70.7
		c1.4,3.101,5.4,4.8,8.8,3.601c5.8-2,5.9-0.301-5.9-73.4c-6-37.1-10.9-68.5-10.9-69.7c0-1.2,0.8-2.4,1.8-2.7
		c0.9-0.3,18.7-3.3,39.5-6.6c34.9-5.6,38-6,40.2-4.6c1.3,0.9,2.6,2.3,2.8,3.3c0.3,1,6.3,37.7,13.3,81.7c12.601,78.6,12.7,80,11.5,87
		c-3.6,21-21,40.5-43,48.199C373.5,318,307.8,327.1,296.5,325.4z"/>
	<path fill="#FFF207" d="M1072.4,314.1c-3.801-2.3-8.301-8-11.801-14.8c-4.199-8.3-3.3-12.1,4.101-17.1c6-4.2,11.1-2.601,23.8,7
		c10.5,8,11.7,11.8,5.8,18.8C1088,315.6,1079,318.1,1072.4,314.1z"/>
	<path fill="#FFF207" d="M459.3,239.8c-1.2-0.6-2.399-2-2.7-3.2c-0.3-1.1-0.6-48.8-0.6-105.8C456,28.3,456,27,458,25
		c1.9-1.9,3.3-2,44.8-2h42.9l2,2.2c1.2,1.3,3.2,4.2,4.5,6.6c1.2,2.4,2.8,5.1,3.3,6c0.6,0.9,2.4,3.9,4,6.7c4.6,7.6,4.8,7.9,8.5,14.4
		c1.9,3.4,3.7,6.1,4,6.1s4.8-8.6,10-19.2c5.2-10.5,10.4-19.9,11.4-21c1.899-1.7,4.5-1.8,44.3-1.8H680.1l2.4,2.5l2.5,2.4v28.4v28.5
		l-9.2,0.4c-10.899,0.5-16.1,2.8-20.5,9.1l-2.8,4l-0.3,71.4l-0.3,71.3h-25.4c-24.2,0-25.6-0.1-27.5-2c-1.8-1.8-2-3.3-2-19.5
		c0-15.8-0.6-19.9-2.4-16.2c-0.3,0.601-1.5,2.601-2.6,4.2c-1.1,1.7-2.4,3.9-3,5s-1.8,3.2-2.8,4.7c-0.9,1.399-3.2,5.3-5.101,8.5
		c-5.3,9.2-7.899,12.3-10.5,12.3c-3.199,0-6.699-3-9.399-8.1c-1.3-2.4-3.2-5.7-4.2-7.4c-1.1-1.6-2.3-3.7-2.7-4.5
		c-0.399-0.8-2.2-3.8-4-6.7c-1.8-2.899-3.3-5.6-3.3-6.1s-0.7-1.5-1.5-2.2c-1.3-1.1-1.5,0.8-1.5,16.3V236.9l-2.6,2
		c-2.601,2-3.7,2.1-41.301,2C475.4,240.9,460.7,240.5,459.3,239.8z"/>
	<path fill="#FFF207" d="M187.4,68.3C184.4,66,181,60,181,57c0-4.3,5.9-10.1,14.4-14.1c6.9-3.3,13.1-3.7,17.6-1.4
		c4.3,2.2,10,11.1,10,15.6c0,5.9-2.3,7.8-11.5,9.4C200.6,68.4,188.7,69.3,187.4,68.3z"/>
	<path fill="#FFF207" d="M713.7,46c-5.3-1-7.8-3.8-8.4-9.4c-0.7-6.3,0.8-8.2,10.8-13.6c10.4-5.5,16-5.9,23-1.8
		c5.101,3,9.801,9.3,10.601,14.1c0.6,4.2-2.601,8.3-7.5,9.6C737.1,46.2,718.3,46.9,713.7,46z"/>
</g>
<g id="layer106">
	<path fill="#F5A0C5" d="M858.4,338.8C852.9,334,847,324.4,847,320.3c0-2.6,0.8-4.2,3.8-6.899c5.9-5.5,7-5.4,20.5,1.199
		c6.5,3.2,12.5,6.801,13.3,7.9c2.5,3.5,1.7,8.1-2.1,12.4c-4.6,5-9.1,7.1-15.4,7.1C862.8,342,861.5,341.5,858.4,338.8z"/>
	<path fill="#F5A0C5" d="M454,327.2c-2.5-1.601-6.6-5.2-9.2-8c-3.899-4.2-4.8-5.8-4.8-8.7c0-4.4,4.4-11.2,7.8-12.1
		c2.3-0.601,15.2,2.199,24.2,5.3c8.8,3.1,10.3,8.6,4.8,16.899c-4.399,6.301-7.7,8.601-13.5,9.101C459.3,330.1,457.8,329.7,454,327.2
		z"/>
	<path fill="#F5A0C5" d="M296.5,325.4c-18.6-2.9-34.2-13.801-41.8-29.4c-4.2-8.5-3.2-2.7-19.8-107.8l-10.3-65.3l2.1-2.1
		c1.9-1.8,7.7-3,41.5-8.4c21.6-3.4,39.4-6.1,39.6-5.9c0.2,0.1,5.2,31.1,11.3,68.6c6,37.6,11.4,69.4,11.9,70.7
		c1.4,3.101,5.4,4.8,8.8,3.601c5.8-2,5.9-0.301-5.9-73.4c-6-37.1-10.9-68.5-10.9-69.7c0-1.2,0.8-2.4,1.8-2.7
		c0.9-0.3,18.7-3.3,39.5-6.6c34.9-5.6,38-6,40.2-4.6c1.3,0.9,2.6,2.3,2.8,3.3c0.3,1,6.3,37.7,13.3,81.7c12.601,78.6,12.7,80,11.5,87
		c-3.6,21-21,40.5-43,48.199C373.5,318,307.8,327.1,296.5,325.4z"/>
	<path fill="#F5A0C5" d="M1072.4,314.1c-3.801-2.3-8.301-8-11.801-14.8c-4.199-8.3-3.3-12.1,4.101-17.1c6-4.2,11.1-2.601,23.8,7
		c10.5,8,11.7,11.8,5.8,18.8C1088,315.6,1079,318.1,1072.4,314.1z"/>
	<path fill="#F5A0C5" d="M187.4,68.3C184.4,66,181,60,181,57c0-4.3,5.9-10.1,14.4-14.1c6.9-3.3,13.1-3.7,17.6-1.4
		c4.3,2.2,10,11.1,10,15.6c0,5.9-2.3,7.8-11.5,9.4C200.6,68.4,188.7,69.3,187.4,68.3z"/>
	<path fill="#F5A0C5" d="M713.7,46c-5.3-1-7.8-3.8-8.4-9.4c-0.7-6.3,0.8-8.2,10.8-13.6c10.4-5.5,16-5.9,23-1.8
		c5.101,3,9.801,9.3,10.601,14.1c0.6,4.2-2.601,8.3-7.5,9.6C737.1,46.2,718.3,46.9,713.7,46z"/>
</g>
<g id="layer107">
	<path fill="#FEFEFE" d="M862.5,341.1c-3.2-1.3-11.3-10.199-13.6-14.899c-3.101-6.4-2.101-10.2,3.8-14.101
		c5.399-3.6,5.2-3.6,17.8,2.301c12,5.699,15.5,8.699,15.5,13.399c0,3-0.8,4.3-4.7,8c-2.7,2.4-5.8,4.8-7.1,5.3
		C871.4,342.2,865.2,342.2,862.5,341.1z"/>
	<path fill="#FEFEFE" d="M457.3,328.8c-1.7-0.6-6.2-3.8-9.8-7.2c-5.6-5.199-6.7-6.699-7.2-10.1c-0.6-5.4,3.7-12.2,8.2-13.1
		c4.2-0.7,25.9,5.699,29.1,8.699c3.101,2.9,3.101,6.801,0,11.7c-2.8,4.5-8.5,10.2-10.199,10.2c-0.601,0-2.4,0.2-4,0.4
		C461.8,329.7,459.1,329.4,457.3,328.8z"/>
	<path fill="#FEFEFE" d="M1072.4,314.2c-4.2-2.7-13-16.101-13.9-21.101c-0.5-2.899-0.2-4.6,1-6.5c1.9-2.8,9-6.6,12.5-6.6
		c3.4,0,18.3,9.8,23.3,15.3c5.8,6.4-3.8,19.4-15.1,20.4C1076.7,316,1074.7,315.6,1072.4,314.2z"/>
	<path fill="#FEFEFE" d="M187.5,68.2c-2.1-1.5-6.5-9.3-6.5-11.4c0.1-6.2,15.9-16.8,25-16.8c5.2,0,10.8,3.8,14.4,9.8
		c3.2,5.3,3.3,9.3,0.4,12.7c-2,2.3-3.8,2.8-15.8,4.5C190,69.2,188.9,69.3,187.5,68.2z"/>
	<path fill="#FEFEFE" d="M709.1,43.4c-2.3-2.1-3.399-4.1-3.8-7c-0.399-3.6-0.1-4.5,2.3-7.2c1.601-1.7,6-4.7,9.7-6.6
		c12-6.2,22.7-4.2,29.101,5.5c3.699,5.5,3.399,12.2-0.7,15.3c-2.4,1.8-4.5,2.1-18.101,2.4l-15.3,0.4L709.1,43.4z"/>
</g>
</svg>
